<svg width="13" height="10" viewBox="0 0 13 10" fill="none" xmlns="http://www.w3.org/2000/svg">
<path d="M6.22004 8.28537C6.32163 8.28537 6.40778 8.23573 6.48305 8.16558L11.7579 3.0628C11.8126 3.00531 11.8532 2.95719 11.8532 2.88552C11.8532 2.74774 11.7287 2.6358 11.5679 2.6358C11.4971 2.6358 11.4202 2.65808 11.3655 2.70468L5.99853 7.88546H6.44985L1.07255 2.70468C1.02504 2.65808 0.948056 2.6358 0.87021 2.6358C0.714521 2.6358 0.590027 2.74774 0.590027 2.88552C0.590027 2.95719 0.635816 3.01443 0.690479 3.06913L5.95503 8.17014C6.0343 8.24029 6.11128 8.28537 6.22004 8.28537Z" fill="#7357FF"/>
</svg>
