<svg width="13" height="11" viewBox="0 0 13 11" fill="none" xmlns="http://www.w3.org/2000/svg">
<g clip-path="url(#clip0_46_34)">
<path d="M12.0701 5.49202C12.0701 5.30944 11.9871 5.13516 11.8377 4.99407L7.5554 0.720011C7.40602 0.578924 7.24003 0.512531 7.06576 0.512531C6.70059 0.512531 6.41841 0.786404 6.41841 1.15987C6.41841 1.33415 6.47651 1.50843 6.601 1.62461L7.74628 2.8114L10.5514 5.34263L10.7008 4.97748L8.49321 4.8198H0.658805C0.268745 4.8198 -0.00512695 5.10196 -0.00512695 5.49202C-0.00512695 5.88209 0.268745 6.16425 0.658805 6.16425H8.49321L10.7008 6.00657L10.5514 5.6497L7.74628 8.17265L6.601 9.35943C6.47651 9.47561 6.41841 9.6499 6.41841 9.82418C6.41841 10.1976 6.70059 10.4715 7.06576 10.4715C7.24003 10.4715 7.40602 10.4051 7.5554 10.264L11.8377 5.98998C11.9871 5.84888 12.0701 5.67461 12.0701 5.49202Z" fill="#7357FF"/>
</g>
<defs>
<clipPath id="clip0_46_34">
<rect width="12.4488" height="9.96728" fill="white" transform="translate(-0.00512695 0.512531)"/>
</clipPath>
</defs>
</svg>