<svg width="19" height="28" viewBox="0 0 19 28" fill="none" xmlns="http://www.w3.org/2000/svg">
<path d="M9.18202 27.4467C14.6941 27.4467 18.364 23.8616 18.364 18.5011C18.364 16.1937 17.4349 13.453 16.1942 10.7699C14.7026 7.55775 12.6135 4.08787 10.5504 0.924886C10.1881 0.369266 9.80209 0.0634766 9.18202 0.0634766C8.56198 0.0634766 8.17593 0.369266 7.81361 0.924886C5.75056 4.08787 3.66148 7.55775 2.16987 10.7699C0.933186 13.453 0 16.1937 0 18.5011C0 23.8616 3.66998 27.4467 9.18202 27.4467ZM9.18202 26.3603C4.32229 26.3603 1.0864 23.2194 1.0864 18.5011C1.0864 16.4176 1.95628 13.9063 3.1647 11.2962C4.64559 8.058 6.68603 4.73112 8.73551 1.61732C8.98704 1.23185 9.3951 1.23185 9.62233 1.61732C11.678 4.73112 13.7123 8.058 15.1954 11.2922C16.4078 13.9063 17.2817 16.4176 17.2817 18.5011C17.2817 23.2194 14.0418 26.3603 9.18202 26.3603Z" fill="#7357FF"/>
</svg>
