<svg width="33" height="34" viewBox="0 0 33 34" fill="none" xmlns="http://www.w3.org/2000/svg">
<path d="M0 13.039C0 20.2107 5.86719 26.078 13.039 26.078C16.1365 26.078 18.9724 24.9882 21.207 23.1604L30.9432 32.9393C31.1434 33.1395 31.4531 33.2935 31.7853 33.2935C32.5443 33.2935 33 32.718 33 32.0644C33 31.7574 32.8786 31.4651 32.6378 31.2369L22.9288 21.4881C24.8886 19.2138 26.078 16.2509 26.078 13.039C26.078 5.86719 20.2108 0 13.039 0C5.86719 0 0 5.86719 0 13.039ZM1.33745 13.039C1.33745 6.60254 6.60254 1.32489 13.039 1.32489C19.4754 1.32489 24.7404 6.60254 24.7404 13.039C24.7404 19.4754 19.4754 24.7404 13.039 24.7404C6.60254 24.7404 1.33745 19.4754 1.33745 13.039ZM13.0564 21.0046C13.2601 21.0046 13.3738 20.8532 13.4059 20.6621C14.2403 14.4789 14.6638 14.1343 20.7074 13.3585C20.9209 13.3362 21.0298 13.2225 21.0298 13.0139C21.0298 12.8304 20.9209 12.7167 20.7074 12.6845C14.6687 11.8962 14.317 11.592 13.4059 5.38309C13.3787 5.19472 13.2601 5.06075 13.0564 5.06075C12.8353 5.06075 12.6964 5.18982 12.6769 5.37819C11.7246 11.6541 11.4065 11.8962 5.38796 12.6845C5.18703 12.7167 5.05308 12.8304 5.05308 13.0139C5.05308 13.2225 5.18703 13.3564 5.38796 13.3585C11.4693 13.4701 11.8962 14.4789 12.6769 20.6572C12.7041 20.8532 12.8304 21.0046 13.0564 21.0046Z" fill="#7357FF"/>
</svg>
