<svg width="23" height="23" viewBox="0 0 23 23" fill="none" xmlns="http://www.w3.org/2000/svg">
<path d="M1.24303 6.61715C4.49519 9.21918 8.64924 10.7222 13.0967 10.6694C16.2293 10.6332 19.1898 9.80194 21.7557 8.33929L21.4735 7.61666C18.9967 9.0518 16.1269 9.8652 13.0885 9.91793C8.75011 9.98716 4.70014 8.4695 1.56308 5.89727L1.24303 6.61715ZM0.420916 12.6341C6.34846 17.575 14.6044 18.5017 21.3911 15.249L21.4723 14.3471C14.7071 17.8056 6.34068 16.8758 0.4842 11.6777L0.420916 12.6341ZM5.74325 20.443L6.66442 20.7882C6.30907 19.8506 6.06972 18.8839 5.93629 17.8683C4.69929 11.2388 7.16879 4.71618 11.9271 0.476412L11.0294 0.274656C6.34667 4.67077 4.00875 11.2498 5.19303 17.9655C5.29023 18.8009 5.48235 19.6465 5.74325 20.443ZM13.3384 21.7593L14.0807 21.5081C12.1105 18.5149 10.9743 14.9518 10.9743 11.1541C10.9743 7.38608 12.0803 3.86935 14.0258 0.906493L13.3251 0.590117C11.3402 3.6621 10.2146 7.29299 10.2146 11.1541C10.2146 15.0344 11.3489 18.6818 13.3384 21.7593ZM20.2302 17.3714L20.6469 16.7543C16.9606 14.6739 14.471 10.8093 14.2485 6.30764C14.1596 4.53783 14.4544 2.80422 15.0688 1.22147L14.3467 0.991757C13.7144 2.64604 13.4081 4.45804 13.497 6.34387C13.7029 11.0669 16.348 15.1678 20.2302 17.3714ZM6.08163 10.6309C6.89916 10.6309 7.57775 9.94913 7.57775 9.12014C7.57775 8.29941 6.89916 7.62082 6.08163 7.62082C5.24944 7.62082 4.57085 8.29941 4.57085 9.12014C4.57085 9.94913 5.24944 10.6309 6.08163 10.6309ZM14.829 11.7226C15.5855 11.7226 16.2115 11.0885 16.2115 10.3173C16.2115 9.56075 15.5855 8.92662 14.829 8.92662C14.0495 8.92662 13.4237 9.56075 13.4237 10.3173C13.4237 11.0885 14.0495 11.7226 14.829 11.7226ZM11.6772 18.2737C12.5145 18.2737 13.1651 17.6232 13.1651 16.7909C13.1651 15.9619 12.5145 15.3081 11.6772 15.3081C10.845 15.3081 10.1912 15.9619 10.1912 16.7909C10.1912 17.6232 10.845 18.2737 11.6772 18.2737ZM11.238 22.4759C17.4521 22.4759 22.4842 17.4438 22.4842 11.238C22.4842 5.02384 17.4521 0 11.238 0C5.0321 0 0 5.02384 0 11.238C0 17.4438 5.0321 22.4759 11.238 22.4759ZM11.238 21.6845C5.46265 21.6845 0.791411 17.0133 0.791411 11.238C0.791411 5.46265 5.46265 0.791411 11.238 0.791411C17.0133 0.791411 21.6928 5.46265 21.6928 11.238C21.6928 17.0133 17.0133 21.6845 11.238 21.6845Z" fill="#7357FF"/>
</svg>
