<svg width="36" height="47" viewBox="0 0 36 47" fill="none" xmlns="http://www.w3.org/2000/svg">
<path d="M8.50948 0C3.80176 0 0 3.80176 0 8.48034C0 10.4645 0.674612 12.3396 1.88066 13.8166C2.07884 14.0519 2.30857 14.1409 2.50351 14.1409C3.01393 14.1409 3.47015 13.5504 3.01393 13.0343C1.98019 11.7984 1.36787 10.1984 1.36787 8.48034C1.36787 4.54435 4.55889 1.36787 8.50948 1.36787C12.4309 1.36787 15.6017 4.55889 15.6017 8.48034C15.6017 8.61623 15.6017 8.67933 15.6017 8.77397C15.6074 9.2472 15.9431 9.46236 16.2553 9.46236C16.6784 9.46236 16.9615 9.16308 16.9639 8.79017C16.9696 8.7214 16.9696 8.62676 16.9696 8.48034C16.9696 3.80176 13.1735 0 8.50948 0Z" fill="#7357FF"/>
<path d="M26.4763 40.8899C33.4271 38.3563 37.1067 32.1166 33.9494 23.4374L32.6658 19.9325C31.0828 15.5734 28.492 13.8756 25.2499 15.0218C24.4307 13.8611 23.0474 13.4073 21.5227 13.95C20.9508 14.1668 20.4016 14.4993 19.858 14.9215C19.0305 13.7413 17.6077 13.2706 16.0659 13.8335C15.5483 14.0244 15.0217 14.3399 14.5299 14.7249L12.041 7.86239C11.3114 5.86365 9.49706 5.14375 7.83477 5.74879C6.09405 6.37405 5.21399 8.0719 5.93228 10.0852L12.3127 27.6282C12.3475 27.7147 12.3273 27.8102 12.2261 27.8506C12.1598 27.8765 12.07 27.8506 11.9802 27.7551L7.9254 23.1923C6.83987 21.9822 5.54647 21.6765 4.41001 22.0744C2.83187 22.6399 1.86605 24.2099 2.51802 25.9434C2.68545 26.3697 2.97908 26.8937 3.30748 27.2942L10.5332 36.0809C14.8979 41.3864 20.4177 43.0893 26.4763 40.8899ZM26.0492 39.6385C20.6725 41.5942 15.5378 40.0355 11.5799 35.209L4.37444 26.4189C4.13745 26.1327 3.9522 25.8664 3.80175 25.47C3.48629 24.5991 3.92955 23.638 4.90749 23.2821C5.62172 23.0249 6.38044 23.3113 7.07525 24.0756L11.6592 29.1272C12.1567 29.6739 12.6695 29.7694 13.226 29.5703C13.8399 29.3399 14.1983 28.7493 13.933 28.0197L7.22006 9.57562C6.78569 8.39387 7.19336 7.3488 8.27321 6.94355C9.35306 6.56419 10.2849 7.11179 10.7136 8.2903L15.4277 21.2381C15.5831 21.6433 15.9527 21.9176 16.3523 21.7566C16.781 21.6069 16.8538 21.1758 16.7131 20.7705L14.9546 15.948C15.3687 15.5832 15.8985 15.2621 16.3612 15.0971C17.6117 14.6368 18.6333 15.1723 19.1575 16.5854L20.4695 20.193C20.6741 20.7552 21.0584 20.8725 21.3941 20.752C21.7209 20.6258 21.9449 20.2933 21.7403 19.7368L20.417 16.0734C20.84 15.7086 21.3609 15.3729 21.8268 15.2168C23.0684 14.7565 24.0957 15.292 24.6199 16.7108L25.5169 19.1884C25.716 19.7303 26.1057 19.8622 26.4471 19.736C26.7625 19.6155 26.9867 19.2628 26.7876 18.7208L25.8826 16.2165C28.1726 15.377 30.0903 16.8596 31.4063 20.4842L32.631 23.8548C35.4888 31.7171 32.3552 37.3373 26.0492 39.6385Z" fill="#7357FF"/>
</svg>
