<svg width="18" height="25" viewBox="0 0 18 25" fill="none" xmlns="http://www.w3.org/2000/svg">
<path d="M7.67509 24.236C7.54994 24.2358 7.42578 24.2139 7.30814 24.1713C7.08123 24.0883 6.88876 23.9316 6.76157 23.7263C6.63438 23.521 6.57982 23.2791 6.60663 23.0391L7.43765 15.3945H1.08088C0.884811 15.3948 0.692367 15.3417 0.524216 15.241C0.356064 15.1403 0.218558 14.9957 0.126464 14.8227C0.0343699 14.6498 -0.00883129 14.4551 0.00149943 14.2595C0.0118301 14.0639 0.0753027 13.8748 0.1851 13.7125L8.70038 0.989413C8.83505 0.790306 9.03244 0.641852 9.26121 0.567621C9.48998 0.49339 9.73702 0.497637 9.9631 0.579687C10.1804 0.660298 10.366 0.808686 10.4924 1.00288C10.6187 1.19707 10.6791 1.42675 10.6646 1.65791L9.83359 9.35645H16.1904C16.3864 9.35615 16.5789 9.40922 16.747 9.50996C16.9152 9.6107 17.0527 9.7553 17.1448 9.92822C17.2369 10.1012 17.2801 10.2959 17.2697 10.4915C17.2594 10.6871 17.1959 10.8762 17.0861 11.0385L8.57086 23.7615C8.47186 23.9079 8.3384 24.0277 8.18221 24.1104C8.02602 24.1931 7.85187 24.2362 7.67509 24.236Z" fill="#7357FF"/>
</svg>
