<svg width="16" height="16" viewBox="0 0 16 16" fill="none" xmlns="http://www.w3.org/2000/svg">
<g clip-path="url(#clip0_1_467)">
<path d="M0 6.17508C0 9.57153 2.77862 12.3502 6.17508 12.3502C7.64202 12.3502 8.98507 11.834 10.0433 10.9684L14.6543 15.5996C14.7491 15.6944 14.8958 15.7674 15.0531 15.7674C15.4125 15.7674 15.6283 15.4948 15.6283 15.1852C15.6283 15.0399 15.5708 14.9014 15.4568 14.7934L10.8588 10.1765C11.7869 9.09939 12.3502 7.69621 12.3502 6.17508C12.3502 2.77862 9.57153 0 6.17508 0C2.77862 0 0 2.77862 0 6.17508ZM0.633397 6.17508C0.633397 3.12687 3.12687 0.627449 6.17508 0.627449C9.22328 0.627449 11.7167 3.12687 11.7167 6.17508C11.7167 9.22328 9.22328 11.7167 6.17508 11.7167C3.12687 11.7167 0.633397 9.22328 0.633397 6.17508ZM6.18333 9.9475C6.27982 9.9475 6.33367 9.8758 6.34886 9.78527C6.74402 6.85703 6.94457 6.69379 9.80675 6.32641C9.90785 6.31583 9.95944 6.26197 9.95944 6.16318C9.95944 6.07628 9.90785 6.02243 9.80675 6.00723C6.94688 5.63389 6.78036 5.48982 6.34886 2.54936C6.33598 2.46015 6.27982 2.3967 6.18333 2.3967C6.0786 2.3967 6.01285 2.45783 6.00359 2.54704C5.55261 5.51924 5.40195 5.63389 2.55166 6.00723C2.45651 6.02243 2.39307 6.07628 2.39307 6.16318C2.39307 6.26197 2.45651 6.32541 2.55166 6.32641C5.43168 6.37927 5.63389 6.85703 6.00359 9.78296C6.01648 9.8758 6.07628 9.9475 6.18333 9.9475Z" fill="#7357FF"/>
</g>
<defs>
<clipPath id="clip0_1_467">
<rect width="16" height="15.7733" fill="white"/>
</clipPath>
</defs>
</svg>
