<svg width="25" height="25" viewBox="0 0 25 25" fill="none" xmlns="http://www.w3.org/2000/svg">
<path fill-rule="evenodd" clip-rule="evenodd" d="M12.9798 21.563C10.3068 21.561 8.15482 20.926 6.64982 19.786C5.12782 18.632 4.31982 16.994 4.31982 15.141C4.31982 13.355 5.12582 12.068 6.03782 11.198C6.64264 10.6326 7.33577 10.1698 8.08982 9.82798C7.96582 9.44998 7.80982 8.95698 7.67182 8.44598C7.48682 7.76398 7.30482 6.96298 7.30482 6.37598C7.30482 5.68198 7.45782 4.98398 7.86982 4.44198C8.30682 3.86998 8.96182 3.56298 9.75082 3.56298C10.3285 3.55717 10.8852 3.77879 11.3008 4.17998C11.6938 4.55398 11.9548 5.04998 12.1348 5.56698C12.4508 6.47498 12.5748 7.61698 12.6088 8.75598H13.3648C13.3988 7.61598 13.5228 6.47598 13.8388 5.56598C14.0188 5.04998 14.2798 4.55398 14.6718 4.17998C15.0818 3.78998 15.6058 3.56298 16.2218 3.56298C17.0118 3.56298 17.6678 3.86998 18.1028 4.44298C18.5158 4.98398 18.6688 5.68198 18.6688 6.37598C18.6688 6.96298 18.4868 7.76398 18.3018 8.44598C18.1618 8.95598 18.0078 9.44998 17.8838 9.82798C18.6379 10.1698 19.331 10.6326 19.9358 11.198C20.8478 12.068 21.6538 13.355 21.6538 15.141C21.6538 16.994 20.8458 18.631 19.3238 19.786C17.8188 20.926 15.6658 21.561 12.9938 21.563H12.9798Z" fill="#633001"/>
<path d="M9.75086 4.22302C8.59486 4.22302 8.06286 5.08602 8.06286 6.27902C8.06286 7.22702 8.68186 9.12502 8.93486 9.86402C8.96183 9.94485 8.95649 10.033 8.91995 10.11C8.88342 10.1869 8.81853 10.2468 8.73886 10.277C7.81286 10.642 5.07886 11.98 5.07886 15.043C5.07886 18.27 7.85686 20.703 12.9809 20.707H12.9929C18.1169 20.703 20.8949 18.27 20.8949 15.043C20.8949 11.98 18.1609 10.643 17.2349 10.277C17.155 10.247 17.0899 10.1872 17.0532 10.1102C17.0164 10.0332 17.0109 9.94498 17.0379 9.86402C17.2919 9.12502 17.9109 7.22702 17.9109 6.27902C17.9109 5.08602 17.3779 4.22402 16.2219 4.22402C14.5579 4.22402 14.1439 6.58102 14.1139 9.11002C14.1128 9.19103 14.0801 9.26841 14.0227 9.3256C13.9654 9.38279 13.8879 9.41525 13.8069 9.41602H12.1669C12.0858 9.41525 12.0084 9.38279 11.951 9.3256C11.8936 9.26841 11.8609 9.19103 11.8599 9.11002C11.8299 6.58002 11.4149 4.22302 9.75086 4.22302Z" fill="#D1884F"/>
<path d="M12.9929 19.673C9.22786 19.673 5.08486 17.658 5.07886 15.049V15.061C5.07886 18.291 7.86186 20.725 12.9929 20.725C18.1239 20.725 20.9069 18.2909 20.9069 15.0619V15.049C20.9009 17.658 16.7569 19.673 12.9929 19.673Z" fill="#FEDC90"/>
<path d="M10.9007 14.248C10.9007 15.128 10.4847 15.588 9.97075 15.588C9.45775 15.588 9.04175 15.128 9.04175 14.248C9.04175 13.368 9.45775 12.908 9.97175 12.908C10.4847 12.908 10.9017 13.368 10.9017 14.248M16.9437 14.248C16.9437 15.128 16.5277 15.588 16.0137 15.588C15.5007 15.588 15.0837 15.128 15.0837 14.248C15.0837 13.368 15.5007 12.908 16.0137 12.908C16.5267 12.908 16.9437 13.368 16.9437 14.248Z" fill="#633001"/>
</svg>
