<svg width="47" height="56" viewBox="0 0 47 56" fill="none" xmlns="http://www.w3.org/2000/svg">
<path d="M37 39.9496C37.2531 39.9496 37.4061 39.778 37.4336 39.5585C38.2049 31.7091 39.0073 31.0586 46.6145 30.3833C46.8469 30.3631 47 30.2064 47 29.9683C47 29.7432 46.8469 29.5865 46.6145 29.5664C39.0073 28.891 38.2049 28.2405 37.4336 20.3875C37.4061 20.1681 37.2531 20 37 20C36.7468 20 36.5845 20.1681 36.5606 20.3875C35.7986 28.2405 34.9926 28.891 27.389 29.5664C27.153 29.5865 27 29.7432 27 29.9683C27 30.2064 27.153 30.3631 27.389 30.3833C34.9703 31.2946 35.6908 31.7185 36.5606 39.5585C36.5845 39.778 36.7468 39.9496 37 39.9496Z" fill="#FF9500"/>
<path d="M9.99995 55.9496C10.2531 55.9496 10.4061 55.778 10.4336 55.5585C11.2049 47.7091 12.0073 47.0586 19.6145 46.3833C19.8469 46.3631 20 46.2064 20 45.9683C20 45.7432 19.8469 45.5865 19.6145 45.5664C12.0073 44.891 11.2049 44.2405 10.4336 36.3875C10.4061 36.1681 10.2531 36 9.99995 36C9.74683 36 9.58447 36.1681 9.56062 36.3875C8.79864 44.2405 7.99258 44.891 0.389033 45.5664C0.153017 45.5865 0 45.7432 0 45.9683C0 46.2064 0.153017 46.3631 0.389033 46.3833C7.97027 47.2946 8.69076 47.7185 9.56062 55.5585C9.58447 55.778 9.74683 55.9496 9.99995 55.9496Z" fill="#FF9500"/>
<path d="M20 19.9496C20.2531 19.9496 20.4061 19.778 20.4336 19.5585C21.2049 11.7091 22.0073 11.0586 29.6145 10.3833C29.8469 10.3631 30 10.2064 30 9.96833C30 9.74322 29.8469 9.58653 29.6145 9.56638C22.0073 8.89105 21.2049 8.24055 20.4336 0.387486C20.4061 0.16806 20.2531 0 20 0C19.7468 0 19.5845 0.16806 19.5606 0.387486C18.7986 8.24055 17.9926 8.89105 10.389 9.56638C10.153 9.58653 10 9.74322 10 9.96833C10 10.2064 10.153 10.3631 10.389 10.3833C17.9703 11.2946 18.6908 11.7185 19.5606 19.5585C19.5845 19.778 19.7468 19.9496 20 19.9496Z" fill="#FF9500"/>
</svg>
