<svg width="45" height="45" viewBox="0 0 45 45" fill="none" xmlns="http://www.w3.org/2000/svg">
<path d="M10 12.375C12.1019 14.6512 19.4594 18.8831 21.9963 21.0544C24.6963 19.8975 31.2231 16.0294 34.1088 12.375C32.6313 10.8994 24.3681 6.9075 22.0525 5.625C19.1706 7.13812 12.2463 10.4456 10 12.375Z" fill="#F2716A"/>
<path d="M10 16.6387C10.5981 16.7925 10.9637 18.0637 11.4062 18.3356C11.9575 18.6431 12.3137 18.2193 12.8537 18.5081C13.5006 18.8456 15.1487 19.6856 15.4281 20.1C15.9006 20.2725 14.9856 21.4012 15.3044 21.5362C16.0544 21.8737 15.9681 24.4293 16.2681 24.9112C17.2994 25.1343 21.5237 23.4656 22.5362 23.9475V18.7406L16.3544 15.5587C15.13 14.94 14.3294 14.4787 13.2494 13.9668C12.2181 13.485 11.0894 12.6656 10 12.3768V16.6387Z" fill="#A24741"/>
<path d="M31.9114 30.0225C31.7164 30.36 26.6445 33.6862 25.7389 33.7537C25.5458 33.9844 25.3714 33.7725 25.1108 33.9656C24.417 34.545 24.2145 34.8056 23.3764 34.9781C22.962 35.1225 22.8458 35.4131 22.5364 35.8181C22.9414 36.9356 23.2489 35.4994 23.2301 39.375C25.0826 39.24 26.712 37.4662 28.3114 36.6937C28.3414 36.6844 28.3226 36.4819 28.3226 36.1744C29.9145 36.3 32.2564 34.5356 33.5876 33.7631C34.2139 33.3581 34.0995 33.2044 34.0995 33.2044L34.0508 30.1181C33.5014 30.0019 33.7695 30.1369 33.5014 29.7319C32.6239 29.8294 32.547 29.8781 31.9114 30.0225Z" fill="#3B1A26"/>
<path d="M32.1798 18.1612C32.4311 18.4894 33.7998 18.3825 34.1092 18.6431V16.2319C33.7042 16.425 32.4123 17.7844 32.1798 18.1612Z" fill="#BD957E"/>
<path d="M22.0732 30.9563C22.1613 31.3519 22.1032 32.3156 22.1407 32.73C22.2382 34.08 23.6744 32.7488 25.8063 32.9625C28.3319 32.8556 30.4151 32.0663 32.0538 29.6831C32.6238 28.845 32.1119 28.845 32.6538 28.3331C33.1151 27.9 33.3082 27.195 34.0038 26.8106C34.1557 26.3663 34.4538 26.2313 34.6788 25.8263C35.0051 25.2769 34.8701 24.8813 34.8701 24.0619L28.4088 27.63C27.4638 28.1606 22.7576 31.0238 22.0732 30.9563Z" fill="#D6D6D6"/>
<path d="M22.5364 18.7012V23.4637C23.2114 23.4637 25.1895 22.0575 25.7576 21.6525V20.1093C26.202 18.9525 29.6333 17.6512 30.8108 17.3418C31.4276 17.1693 32.6145 17.3606 33.1433 17.6793C33.4339 17.4281 33.597 16.7925 34.1089 16.6762V12.3768C31.0226 13.3406 25.6526 16.86 22.5364 18.7012Z" fill="#DB5B54"/>
<path d="M10 25.2938C11.7831 26.1057 12.4112 27.3188 14.2431 27.1744C14.2131 25.7569 15.2069 25.5169 15.4675 24.3113C15.6606 23.4619 15.3719 21.4575 15.3812 20.4732C15.6512 19.9725 15.4375 20.3194 16.2287 20.0794C15.9587 19.6257 13.7406 18.6132 13.1444 18.2663C12.6419 17.9757 12.295 17.8313 11.7831 17.5238C11.3594 17.2613 10.5681 16.5975 10 16.4438V25.2938Z" fill="#886B58"/>
<path d="M32.6614 21.5438L32.6333 22.9819C31.7464 23.1844 32.0071 23.2519 31.1296 23.685C30.7039 23.9269 30.1921 24.3225 29.5171 24.5157L29.5096 23.3569C29.4776 23.3899 29.4417 23.4189 29.4027 23.4432C28.9021 23.9082 28.6902 24.2157 28.0527 23.7919L28.0039 25.5169C27.3008 25.7382 27.1358 26.0194 26.4908 26.2219C26.0858 26.6944 25.2852 27.0207 24.8127 27.1763L24.8502 23.7057C25.3433 23.3494 26.6839 22.9332 26.4908 22.74L24.7264 22.0463C24.1958 22.1419 23.7139 22.4907 23.3277 22.74C22.8364 23.0494 22.8946 23.1638 22.4783 23.415L22.5271 30.2513C25.4896 28.5825 32.2658 26.1825 34.0396 23.3569V20.8894C33.5162 20.9549 33.0272 21.1847 32.6427 21.5457L32.6614 21.5438Z" fill="#BD957E"/>
<path d="M14.2152 27.1781V28.1231C14.9202 28.3537 16.0189 29.01 16.5964 29.4544C17.2527 29.7431 17.6389 29.8875 17.9764 30.2831L18.8933 30.6975C19.0658 30.9094 19.2777 31.0256 19.5496 31.1606C19.6358 31.2169 19.9921 31.3912 20.0014 31.4119C20.3764 31.6612 19.9733 31.2187 20.2714 31.7194L20.5714 31.8356C21.1452 32.0325 21.6777 32.3362 22.1427 32.7319L22.3827 32.6456C22.2102 32.4037 22.2964 32.6156 22.1896 32.2012C22.1427 31.9894 22.1614 31.9125 22.1427 31.7006C22.1052 31.2862 22.1708 31.335 22.0846 30.9394C21.2164 30.765 20.5021 29.6081 20.0014 29.01L16.4633 24.7087C16.1933 24.0337 16.3564 21.7875 16.3658 20.9287C15.7489 20.8031 15.5277 20.4562 14.8227 20.3025C14.8227 21.5362 14.9296 23.1656 14.7271 24.0337C14.4571 25.2394 14.1964 25.7587 14.2152 27.1781Z" fill="#898988"/>
<path d="M24.8221 20.3007C25.5646 20.9944 27.8109 22.2882 28.7184 22.8075C29.9521 22.0369 33.6065 20.1657 35.0521 18.8832C34.3096 18.42 31.5421 16.26 30.839 16.4532C29.7309 16.7625 25.2459 19.1813 24.8221 20.31V20.3007Z" fill="#F2716A"/>
<path d="M22.5364 30.6956V23.5406C21.4864 23.0888 17.8414 21.2363 16.752 21.0544C16.752 21.7575 16.4895 23.5988 16.752 24.1294L22.5364 30.6956Z" fill="#886B58"/>
<path d="M16.0284 20.9382C16.0284 21.8044 15.854 24.0507 16.124 24.7257L19.9809 29.0194C20.4834 29.625 21.2053 30.7819 22.0734 30.9469C22.7484 31.0219 27.4734 28.1494 28.3997 27.6094L34.8797 24.0432C34.6284 23.7919 34.3097 23.6175 33.9928 23.4057C33.6647 23.9644 34.049 23.5125 33.3065 23.9457L22.169 30.2138L16.8403 24.1875C16.6078 23.6082 16.7522 21.4107 16.7522 20.6288C16.2422 20.7544 16.4315 20.6475 16.0284 20.9382Z" fill="#FCFCFC"/>
<path d="M16.7521 35.5181C17.234 35.8369 22.5271 39.8569 23.5021 39.3169C23.5208 35.6044 23.2396 36.9731 22.8271 35.9231C21.0908 35.5181 20.2621 35.1506 18.7771 34.3106C18.2558 34.485 16.7521 34.5544 16.7521 35.5181Z" fill="#29121A"/>
<path d="M18.8724 33.0488C19.0168 33.2419 18.9493 33.165 18.9793 33.5981C18.9981 33.8006 19.0356 34.1288 18.9981 34.4663C20.0012 35.0156 21.3118 35.76 22.3543 36.2981C22.6431 36.3281 24.4468 35.3644 24.4656 35.0363V34.5544C24.8031 34.3313 25.4218 33.7913 25.9112 33.5888C25.5456 33.3956 24.5237 34.1888 24.0606 33.9075C23.3087 32.5575 23.1924 32.3363 20.6087 31.6613C20.2899 31.9219 20.0293 31.8825 19.6449 32.1431C19.2587 32.3644 19.1031 32.7206 18.8724 33.0488Z" fill="#9B3D53"/>
<path d="M28.7366 22.395L28.6991 24.0825C30.2891 22.8975 33.1822 21.1894 35.0722 20.67V18.885C32.6801 19.4561 30.4893 20.6698 28.7366 22.395Z" fill="#DB5B54"/>
<path d="M14.8223 36.4819V33.5888C14.2523 33.0881 13.8773 33.165 13.3748 32.625C13.7798 32.2313 13.7217 32.7806 14.3404 32.625C13.9354 32.6438 14.3779 32.0756 14.3592 31.7869L13.8567 31.1794C13.0767 32.9044 12.3435 32.1244 10.9654 31.7381V34.5544C11.5823 34.7475 14.1379 36.3094 14.8223 36.4819Z" fill="#896C5A"/>
<path d="M11.0612 31.7569C11.6594 31.9012 11.9294 32.3344 12.4862 32.3944C12.8537 32.4206 13.0188 32.3344 13.3169 32.2181C13.8081 32.0269 13.7406 32.1994 13.9544 31.7381C13.4031 31.0444 13.6844 31.7381 13.3356 30.9562C13.6844 30.6656 13.5494 30.6469 14.1269 30.7144C14.2525 30.1256 14.2337 30.4744 14.0406 30.3862C13.3169 30.5419 13.8869 30.5794 13.3169 30.4556C13.105 30.5231 12.6325 30.5025 12.4487 30.5906C10.3862 29.6925 11.3219 29.0456 11.8712 28.2094C11.89 28.1794 12.8069 28.3219 12.8931 28.2844C12.4694 25.3912 11.9294 29.25 11.8131 26.6737C11.3313 26.9831 11.6969 26.8481 11.0612 26.9831C10.4425 26.5687 10.5981 26.7525 10 26.3569V31.2169C10.4237 31.4081 10.6187 31.5731 11.0612 31.7456V31.7569Z" fill="#9B3D53"/>
<path d="M11.8152 26.6475C11.8058 27.3225 11.8152 26.9662 11.3427 27.36C12.1527 28.5937 12.2971 26.6756 12.4696 27.9187C12.6158 28.0744 11.9877 28.44 12.1321 28.5937C12.2971 29.0962 11.9202 29.4337 12.2296 29.9062C12.4508 30.2531 13.1446 30.3487 13.3583 30.6769C13.5496 30.7744 14.2546 30.0994 14.1289 30.6769L14.5733 31.1794C14.5358 31.8056 13.8308 32.115 14.2827 32.115C14.9202 32.25 15.1227 32.2294 15.5071 32.6925C15.8933 33.1462 14.9577 33.5119 15.0458 34.1194C15.1696 37.3012 15.3833 34.7944 16.3171 34.4569L16.7427 34.2937L16.7521 33.5887C17.9858 33.5887 17.2827 33.2812 18.1977 33.1069V33.5887H18.6814C18.9121 33.2625 19.2496 32.625 19.6752 32.3737C20.0596 32.1337 20.2902 31.9219 20.6089 31.6612L20.2902 31.6987C19.6827 31.9312 19.0658 32.2106 18.4208 32.25C18.0346 32.3175 18.2277 32.1525 18.0646 32.3737C17.8208 32.6831 16.8289 33.3862 16.2496 33.405L15.4396 31.2375C14.8039 31.0444 14.1289 29.79 13.8308 29.1825C13.4746 28.47 13.3864 28.5937 13.0208 28.0537C12.5577 27.3787 12.5577 27.4369 12.4902 26.8012L13.1464 26.8294C12.9533 26.5219 13.4258 26.6362 12.8089 26.5687C12.5371 26.7037 12.9327 26.1375 12.4527 26.1375L12.0458 26.2425C11.4008 25.875 12.0458 26.1544 11.4289 25.8262C11.5733 26.2894 11.5733 26.2125 11.8152 26.6362V26.6475Z" fill="#C67768"/>
<path d="M24.8033 22.0294L26.307 22.8394L26.3933 22.935C26.847 23.1562 27.4545 23.4469 27.8014 23.7544L28.1014 23.7919C28.4764 24.0544 28.3133 23.9662 28.6977 24.0825L28.737 22.395C28.0133 22.0012 27.522 21.7575 26.7983 21.3262C26.3164 21.0356 25.4014 20.4562 24.822 20.3025L24.8033 22.0387V22.0294Z" fill="#A24741"/>
<path d="M18.5557 33.375C18.072 33.6844 17.0032 33.7613 16.4726 33.9844L15.9795 34.0594C15.6907 34.3782 15.642 34.1082 15.4789 33.8682L14.8226 33.7332V36.4819C15.5464 36.3282 15.1132 36.4444 15.7489 36.0375C16.1051 35.8163 16.3076 35.7188 16.6657 35.5257C17.0314 35.1207 18.5745 34.7363 19.0657 34.5432C19.0957 34.1757 19.182 33.8194 19.1632 33.5869C19.1332 33.1257 18.8257 32.8182 18.6795 32.6232L18.5557 33.375Z" fill="#BD957E"/>
<path d="M15.4186 31.245C15.0136 30.33 14.9367 31.005 15.0623 30.1856C15.4186 29.9531 15.0811 30.1481 15.5742 29.9531C16.1704 29.7131 15.7467 29.7994 16.4217 29.6925L16.7104 29.4337C16.0125 28.8655 15.2364 28.4007 14.4061 28.0537L14.2711 27.1087L13.1723 26.7037L12.4692 26.8012C12.5254 27.4181 12.5367 27.3787 12.9979 28.0537C13.3654 28.5937 13.4611 28.4681 13.8079 29.1825C14.1079 29.7806 14.7717 31.0631 15.4186 31.245Z" fill="#B64759"/>
<path d="M24.4355 34.8712C24.8705 34.7737 25.073 34.6687 25.3805 34.485C25.5736 34.3687 25.5643 34.4081 25.8061 34.1962C26.0368 34.0031 25.988 34.0612 26.1624 33.84C29.7793 32.0269 26.3743 33.7725 25.5436 32.5575L22.5268 32.2481L23.9536 34.0406C24.4168 34.3312 24.7261 33.7725 25.0824 33.9656C24.5705 34.1662 24.5518 34.1662 24.2443 34.3894L24.4355 34.8712ZM30.7524 30.1275L31.3411 30.7837C31.8418 30.6562 32.0349 30.4744 32.5449 30.2325C33.1636 30.0881 32.8168 30.0206 33.6643 29.9512C34.0993 29.3831 34.0318 29.6062 34.0318 28.6012L34.013 26.79C33.338 27.195 33.143 27.8981 32.6705 28.3144C32.1211 28.8337 32.1605 28.5056 31.6018 29.3362C31.0318 30.1462 31.0505 30.1462 30.7524 30.1256" fill="#C54D62"/>
<path d="M15.3046 31.6613C15.554 31.815 15.9496 32.355 16.1053 32.8556C16.9528 32.6644 17.714 32.625 18.1978 32.1431C16.3078 29.5294 17.5509 31.4306 16.4221 29.6738C15.9453 29.7461 15.487 29.9097 15.0721 30.1556C14.8228 30.6956 15.2071 31.0931 15.3046 31.6613Z" fill="#DA5A53"/>
<path d="M14.9764 34.0707L15.9983 33.705C15.937 33.3082 15.7569 32.9391 15.4818 32.6466C15.2067 32.3541 14.8494 32.1518 14.457 32.0663C13.8289 32.22 13.5683 32.355 13.1633 32.7694L13.3376 32.9625C13.9564 33.3863 13.917 33.135 14.9764 34.0613V34.0707Z" fill="#9D4542"/>
<path d="M28.1785 32.0475L27.9085 32.2032L27.7641 33.1482C28.921 32.8969 28.0135 33.0994 30.271 31.6819C30.8203 31.335 32.2285 30.765 32.5378 30.2344C32.0353 30.4763 31.8441 30.5907 31.351 30.7182L30.7829 30.1107C30.0291 30.255 30.5691 29.82 30.0103 30.5832L28.7953 31.9894L28.1785 32.0475Z" fill="#AA3A62"/>
<path d="M13.1837 30.5812C12.9512 30.1087 12.9137 29.9738 12.6624 29.625C12.0643 28.7775 12.1318 28.9031 12.8931 28.4006L12.4693 27.9375C12.3831 27.9675 11.8131 28.1306 11.7943 28.1606C11.3218 28.9031 11.8918 28.2956 10.9262 29.3663C11.1681 29.9531 11.6199 30.5906 12.4506 30.8025L12.7693 30.705L13.1743 30.5812H13.1837Z" fill="#B74667"/>
<path d="M26.5299 26.2125C27.1862 26.0007 27.3493 25.7307 28.0524 25.5L28.1012 23.7732L27.8105 23.7357C27.503 24.0525 26.9912 24.255 26.558 24.4107L26.5299 26.2125Z" fill="#493238"/>
<path d="M22.1427 32.7506C22.1615 33.2512 22.4315 33.705 22.4015 33.9075C22.3527 34.3612 22.1409 33.8794 22.1615 34.9969C22.5459 34.8712 23.3371 34.5825 23.7027 34.4194C23.7215 33.7725 23.849 34.2937 23.5884 33.8194C23.2021 33.1444 23.4815 33.8194 23.2021 33.3394C22.9134 32.8181 23.2115 32.8762 22.7015 32.4619L22.3734 32.6644L22.1409 32.7581L22.1427 32.7506Z" fill="#B74667"/>
<path d="M18.0026 32.22L18.2538 32.2294C18.4844 31.1306 17.5301 31.1494 17.9726 30.2813C17.6351 29.8875 17.2507 29.7525 16.5944 29.4525L16.4219 29.6738C17.1926 30.8888 16.4594 30.495 15.4657 31.1794C15.6607 31.3238 15.4376 31.4681 15.8913 31.4681C17.2976 31.5056 16.2776 30.4931 18.0119 32.22H18.0026Z" fill="#DC8573"/>
<path d="M31.1574 22.3557L31.1387 23.6869C32.0162 23.2519 31.7574 23.1844 32.633 22.9819L32.6518 21.5457L31.4368 22.095L31.3412 22.1625L31.148 22.3557H31.1574Z" fill="#493238"/>
<path d="M14.0408 30.3694C13.7501 29.8875 13.0564 28.8263 12.8933 28.3819C11.6389 29.2313 12.5933 30.6788 14.0408 30.3694Z" fill="#C54D62"/>
<path d="M18.1209 32.22L18.044 32.3944C18.2072 32.1619 18.1397 32.5575 18.5447 32.49C18.7659 31.9106 18.7565 31.9894 19.2197 31.5638L18.9122 30.6975L17.9953 30.2812L17.5715 30.6488C17.8903 31.2469 18.2559 31.5731 18.1209 32.22Z" fill="#D25652"/>
<path d="M10 26.8387C10.5213 27.3394 10.1537 27.1462 10.9056 27.5887C11.6875 27.4462 11.8037 27.1575 12.4112 26.8387C12.1112 26.3569 11.6388 25.8637 11.4456 25.3631C10.9731 25.0631 10.7706 25.0256 10 24.9094V26.8387Z" fill="#A24741"/>
<path d="M25.527 32.5482L25.8158 32.9607C26.1814 33.3769 26.337 33.0788 26.1439 33.8307C26.8189 33.7725 27.6083 33.4069 28.1876 32.9719C28.0526 32.8369 27.8689 32.3944 28.1595 32.0269L27.4658 31.6988L25.5345 32.5482H25.527Z" fill="#C75667"/>
<path d="M22.4801 35.9419L23.0782 35.8444C23.3669 35.4788 23.1251 35.6906 23.5301 35.4506C23.6013 35.398 23.6795 35.3557 23.7626 35.325C24.1376 35.1506 23.6088 35.3438 24.1488 35.1694C24.1376 34.8038 24.1676 34.9106 24.0326 34.7175C23.3201 34.6294 23.4138 34.9481 22.7013 35.1506C22.4407 35.2369 22.5082 35.1694 22.2776 35.1994C22.2101 35.7 22.0357 35.8256 22.4688 35.9419H22.4801Z" fill="#C54D62"/>
<path d="M18.042 32.4037L18.1189 32.2294H18.012C14.8695 33.0487 17.1064 32.6437 15.4677 31.5919L16.2289 33.4444C16.8083 33.4256 17.8002 32.7019 18.042 32.4037Z" fill="#A83B45"/>
<path d="M14.8226 20.5144C15.4507 20.6494 15.5464 20.9475 16.1051 21.0544C16.4801 20.7938 16.2982 20.8913 16.752 20.7844C16.4895 20.3513 16.8682 20.7075 16.2214 20.3981L15.4695 20.0906C14.757 20.3025 15.0645 20.0719 14.8226 20.5144Z" fill="#DBDCDC"/>
<path d="M18.3928 32.2856C19.0378 32.2669 20.0109 31.8806 20.609 31.6594C20.3203 31.1775 19.2965 31.11 18.8915 30.7144L19.0171 31.5244C18.554 31.9387 18.6328 31.6969 18.4003 32.2856H18.3928Z" fill="#A83B45"/>
<path d="M16.7388 34.2937C17.3088 34.0819 17.9351 33.6862 18.4451 33.4069L18.3513 33.06C17.4438 33.2325 17.7701 33.5325 16.5457 33.5325L16.7388 34.2937Z" fill="#BB524B"/>
<path d="M13.5871 31.7568C14.069 31.785 14.7533 31.9012 14.7815 31.1981L14.339 30.6956C13.769 30.6281 13.664 30.6281 13.3171 30.9187C13.6827 31.7381 13.0471 31.0631 13.5871 31.7475V31.7568Z" fill="#DA5A54"/>
</svg>
