<svg width="38" height="35" viewBox="0 0 38 35" fill="none" xmlns="http://www.w3.org/2000/svg">
<path fill-rule="evenodd" clip-rule="evenodd" d="M36.4571 22.1774L29.1946 32.2676C28.1355 33.7363 26.0732 34.3858 23.4462 34.1768C19.7974 33.8604 14.9488 31.9346 10.3112 28.625C8.80179 27.5571 7.37402 26.3782 6.03974 25.0982C3.58236 22.7277 1.77862 20.262 0.810557 18.0611C-0.24645 15.6451 -0.281615 13.5083 0.775392 12.0376L8.05654 1.94744C9.11354 0.478797 11.1593 -0.170714 13.8029 0.0382052C17.4538 0.33607 22.2837 2.28047 26.9379 5.57353C31.5734 8.88314 34.9761 12.8257 36.422 16.1539C36.5461 16.4394 36.6564 16.7207 36.7529 16.9979C37.4728 19.0664 37.39 20.8805 36.4571 22.1774Z" fill="url(#paint0_linear_1_455)"/>
<path fill-rule="evenodd" clip-rule="evenodd" d="M35.2943 16.6442C33.9001 13.4731 30.6401 9.74156 26.197 6.59122C21.7704 3.43675 17.17 1.56475 13.697 1.28344C11.5809 1.10761 9.90746 1.49235 9.06144 2.66727L9.02628 2.73553C8.23197 3.91044 8.40779 5.57352 9.23727 7.4662C10.6294 10.6517 13.8914 14.3833 18.318 17.5357C22.7405 20.6902 27.3429 22.5622 30.8159 22.8435C32.8948 23.0007 34.5351 22.6346 35.3997 21.53L35.4515 21.4431C36.2995 20.2847 36.1217 18.57 35.2943 16.6442ZM28.7888 16.7145C28.3999 17.2564 27.6077 17.4137 26.6376 17.3268C24.8917 17.1861 22.5998 16.2408 20.3782 14.6646C18.1567 13.0884 16.5184 11.2309 15.8296 9.63814C15.4428 8.74454 15.3373 7.95644 15.7262 7.41242C16.113 6.87047 16.9052 6.7112 17.8919 6.78153C19.6212 6.9408 21.9296 7.86749 24.1347 9.44576C26.3562 11.022 27.9945 12.896 28.6812 14.4888C29.0887 15.3824 29.1942 16.1705 28.7888 16.7145Z" fill="white"/>
<defs>
<linearGradient id="paint0_linear_1_455" x1="12.6403" y1="-0.41273" x2="24.4557" y2="34.6774" gradientUnits="userSpaceOnUse">
<stop stop-color="#27B0E6"/>
<stop offset="0.044" stop-color="#49A1DB"/>
<stop offset="0.118" stop-color="#7D8ACA"/>
<stop offset="0.216" stop-color="#A279BD"/>
<stop offset="0.296" stop-color="#BA6FB6"/>
<stop offset="0.375" stop-color="#C26BB3"/>
<stop offset="0.468" stop-color="#D563AD"/>
<stop offset="0.58" stop-color="#E65BA7"/>
<stop offset="0.709" stop-color="#F156A3"/>
<stop offset="0.823" stop-color="#F853A1"/>
<stop offset="1" stop-color="#FA52A0"/>
</linearGradient>
</defs>
</svg>
