<svg width="56" height="56" viewBox="0 0 56 56" fill="none" xmlns="http://www.w3.org/2000/svg">
<path d="M40.6835 21.8852C41.0404 21.2375 41.3416 20.8425 41.7163 20.5271C41.8643 20.4034 41.9955 20.3065 42.0049 20.311C41.9516 20.3955 41.8864 20.4719 41.8113 20.5379C41.4911 20.8641 41.213 21.3877 41.0087 22.0508C40.746 22.8919 40.7569 23.0378 41.1846 24.2872C41.3847 24.8744 41.5985 25.5935 41.6609 25.8893L41.7723 26.4244L41.6068 26.0021C41.4055 25.4817 40.8813 24.4095 40.7407 24.2246C40.6462 24.1002 40.6266 24.0928 40.5138 24.1312C40.4095 24.1678 40.3428 24.2668 40.0938 24.762C39.704 25.5346 39.3571 25.9847 38.8598 26.3628C38.5896 26.5646 38.5948 26.4977 38.8689 26.2515C39.0718 26.0694 39.13 25.9721 39.4913 25.2187C40.2177 23.7001 40.211 23.248 39.4511 22.1168C39.2213 21.7776 38.9745 21.4502 38.7116 21.136C38.5778 20.9902 38.4545 20.8352 38.3427 20.672C38.3883 20.6572 39.2778 21.4538 39.6163 21.8126C40.1216 22.3459 40.2084 22.426 40.2971 22.4339C40.357 22.4376 40.4519 22.3039 40.6828 21.8867" fill="#F50DB4"/>
<path d="M28.6634 13.4078C28.3231 13.1733 28.3097 13.1611 28.4971 13.2163C28.8517 13.3246 29.6002 13.7684 30.0782 14.1537C31.1933 15.0546 31.9724 16.3665 32.5459 18.3042L32.6974 18.82L33.1987 18.9679C35.3053 19.5929 37.1744 20.7976 38.4728 22.3605C38.8296 22.7898 39.3511 23.5543 39.3885 23.7052C39.4018 23.7539 39.3491 24.0003 39.2709 24.2518C39.0056 25.1264 38.6424 25.7229 38.1687 26.0679C37.91 26.2579 37.8638 26.334 37.8503 26.5953C37.8413 26.8029 37.9833 27.029 38.1853 27.1259C38.5989 27.3242 39.3645 26.8726 40.013 26.0469L40.2725 25.7186L40.3459 25.9792C40.7564 27.4092 40.7985 29.1132 40.4518 30.1453L40.3615 30.4141L40.3223 30.1102C40.278 29.6543 40.1342 29.2137 39.9009 28.8195C39.4911 28.1394 38.9229 27.7012 37.292 26.8112C35.8196 26.0087 35.026 25.4701 34.3108 24.788C33.092 23.6294 32.6626 22.6566 32.0218 19.598C31.7368 18.2399 31.5305 17.4647 31.274 16.7984C30.6943 15.2834 29.9011 14.2538 28.6619 13.407M27.0699 18.5583C26.8134 17.1811 27.1033 15.3954 27.7631 14.2726L27.9688 13.9243L28.1229 14.0367C28.4146 14.2479 28.8668 14.7152 29.0493 14.9935C29.5498 15.7576 29.5879 16.4656 29.2062 18.057C29.0942 18.5235 28.9857 19.059 28.9631 19.2467C28.9262 19.5488 28.9691 20.3188 29.0508 20.8435C29.1106 21.2209 28.9153 21.2949 28.5017 21.0484C27.8693 20.6718 27.2678 19.6281 27.0699 18.5583ZM34.8861 31.6511C32.0711 28.5863 31.4245 26.785 32.4041 24.7425C32.5483 24.4417 32.6779 24.1995 32.6905 24.2055C32.703 24.2115 32.7896 24.3764 32.883 24.5714C33.319 25.4741 33.9951 26.0931 36.0323 27.4613C37.2313 28.2675 37.8844 28.7657 38.4474 29.3073C40.2387 31.0276 40.87 33.0817 40.2549 35.1719C40.0753 35.7794 39.5157 36.8096 39.1018 37.295C38.774 37.6772 38.0375 38.3009 37.9277 38.2848C37.8981 38.2822 37.9196 38.1692 37.9787 38.0299C38.292 37.2842 38.2619 36.399 37.8962 35.5705C37.479 34.6286 36.7604 33.6925 34.8861 31.6511ZM32.163 31.058C32.2401 30.7905 32.301 30.5186 32.3454 30.2438L32.3824 29.9379L32.4605 30.2008C32.5668 30.5658 32.5891 30.9772 32.5353 31.487C32.492 31.8747 32.4572 31.9794 32.1987 32.5182C31.9448 33.0476 31.8758 33.1513 31.6243 33.3987C31.2297 33.7875 30.8583 34.0197 30.3307 34.2079C29.3875 34.5474 28.3971 34.5116 27.147 34.0932C26.929 34.0214 26.3104 33.7768 25.7705 33.5526C24.4131 32.9844 23.4723 32.7085 22.5576 32.607C22.4718 32.6045 22.3872 32.5861 22.3081 32.5528C22.2918 32.5065 22.9761 32.4455 23.5192 32.4459C24.2838 32.4465 24.9806 32.5803 26.475 33.0157C27.2159 33.2304 27.9877 33.4329 28.1949 33.4629C30.1376 33.7588 31.6501 32.8427 32.1615 31.0573" fill="#F50DB4"/>
<path d="M32.4062 34.6445C32.4189 33.433 32.7706 32.4264 33.4518 31.6568C33.5235 31.5756 33.605 31.5183 33.63 31.5303C33.7019 31.6032 33.7627 31.6862 33.8105 31.7768C33.9567 32.0222 34.2686 32.4685 35.1114 33.6318C36.1641 35.0846 36.6885 36.0721 36.9123 37.0194C37.1093 37.846 37.0817 38.6709 36.8261 39.5694C36.6837 40.0791 36.0928 41.1868 35.7453 41.602C34.6472 42.9114 33.1956 43.6564 31.6017 43.7339C31.4492 43.7452 31.296 43.7464 31.1433 43.7376C31.1245 43.7286 31.2738 43.5901 31.4755 43.4306C32.3268 42.7484 32.7892 41.9086 32.927 40.7937C33.0114 40.1116 32.9521 39.2027 32.7206 37.6005C32.4522 35.7378 32.4022 35.2514 32.4062 34.6445ZM16.7622 33.7078C18.575 33.2421 20.5533 33.2429 22.1313 33.7088C22.8114 33.9097 23.8452 34.4537 24.3581 34.8827C25.1798 35.5716 25.7632 36.5083 25.8937 37.3531C26.0208 38.1809 25.9441 38.8107 25.5552 40.1077C25.402 40.62 25.2544 41.1368 25.2276 41.2569C25.0704 41.9502 25.1096 42.5836 25.3355 43.0002C25.6907 43.6618 26.6208 44.1368 27.7208 44.2213C27.8389 44.2236 27.9561 44.241 28.0698 44.273C28.0877 44.324 27.4722 44.4103 27.0628 44.4163C26.5144 44.423 26.1206 44.3401 25.6523 44.1155C24.8033 43.7083 24.3043 42.9411 24.136 41.7815C24.1027 41.5536 24.0906 40.912 24.1071 40.3554C24.1629 38.6481 24.0625 38.074 23.5658 37.2578C23.1353 36.5485 22.3592 36.0858 21.6095 36.0903C20.6213 36.0981 19.9098 37.0072 20.1743 37.9259C20.2782 38.2917 20.5968 38.7162 20.9242 38.9252C21.0657 39.0182 21.2254 39.0797 21.3927 39.1055C21.5599 39.1313 21.7308 39.1209 21.8936 39.075C22.0565 39.0291 22.2076 38.9487 22.3368 38.8393C22.4659 38.7299 22.57 38.594 22.642 38.4409C22.8448 38.0179 22.7984 37.697 22.475 37.3146C22.0321 36.792 21.2862 36.7965 21.037 37.3243C20.9295 37.5483 20.9622 37.7374 21.1389 37.9473C21.2515 38.0822 21.2539 38.0892 21.1477 38.0094C20.6819 37.6549 20.8572 36.9761 21.4691 36.7647C22.2054 36.511 23.1317 37.223 23.1626 38.0663C23.1762 38.4196 22.923 38.9918 22.63 39.2693C21.9744 39.8932 20.9354 39.8862 20.1814 39.2568C19.6686 38.8278 19.5087 38.5546 19.1501 37.4945C18.5262 35.6539 18.1687 35.1819 16.5342 34.0628L16.2214 33.8473L16.7622 33.7078Z" fill="#F50DB4"/>
<path fill-rule="evenodd" clip-rule="evenodd" d="M21.7831 8.50318C23.5051 15.3979 25.3448 18.7849 25.4508 19.3674C25.5394 19.8454 25.2891 20.1184 24.7256 20.1564C24.4128 20.1778 23.8393 20.0762 23.5855 19.9545C23.2989 19.817 23.2528 19.66 23.2528 19.66C23.1619 19.4238 23.0567 19.4061 22.9257 17.4898C22.7411 16.0129 22.5451 14.5375 22.3376 13.0636C22.3035 12.974 22.3043 12.9763 22.6187 17.8204C22.5817 18.7814 22.1663 18.9405 22.1122 19.0533C22.0018 19.2836 21.8806 19.3757 21.4422 19.5546C20.7121 19.8557 20.2143 20.3472 19.4719 21.5016C18.6385 22.7974 17.6864 23.5372 15.5448 24.5601C14.2912 25.1572 14.0771 25.2742 13.6912 25.5727C13.2032 25.9475 13.0013 26.1917 12.6734 26.8031C12.3266 27.4499 12.1795 27.9053 12.0804 28.6342C11.9922 29.272 12.002 29.7256 12.1265 30.6832C12.2326 31.5105 12.2445 32.0923 12.1566 32.2755C12.0868 32.4212 12.115 32.4347 12.8177 32.5964C14.497 32.9837 16.0174 32.975 17.0621 32.5724C17.7091 32.324 17.9296 32.1214 18.2317 31.4995C18.4301 31.0938 18.4573 31.0008 18.4588 30.7126C18.4612 30.2455 18.2848 29.7698 17.797 28.9309C17.1581 27.8326 17.0034 27.1188 17.2324 26.352C17.4225 25.7226 17.7273 25.3602 18.7764 24.5185C19.8608 23.6475 20.2268 23.2297 20.8646 22.1329C21.2772 21.4253 21.4983 21.173 21.8217 21.041C22.1606 20.9049 22.4009 20.918 22.9844 21.1073C23.939 21.4149 24.6196 21.458 25.2961 21.2527C25.8814 21.0767 26.2233 20.7976 26.5091 20.27L26.724 19.8702L26.6238 19.4965C26.2605 18.149 21.5932 7.48921 21.5415 7.46442C21.5305 7.45916 21.6392 7.92746 21.7831 8.50318ZM14.49 28.5953C14.6561 28.4805 14.7726 28.3071 14.8161 28.1099C14.8595 27.9127 14.8267 27.7064 14.7242 27.5324C14.5229 27.1969 14.022 27.0684 13.9003 27.3222C13.8627 27.4005 13.8803 27.4764 13.9534 27.5731C14.0764 27.7342 14.0423 27.8334 13.8231 27.9653C13.5983 28.0964 13.5274 28.2724 13.6206 28.4597C13.7717 28.7633 14.1612 28.8229 14.49 28.5953ZM26.0049 22.8199C25.5235 22.747 24.9005 22.9934 24.5521 23.3986C24.3385 23.6429 24.1451 24.1628 24.1874 24.3719C24.2543 24.7104 24.4037 24.861 24.8939 25.0922C25.8555 25.5457 26.8833 25.5358 27.2246 25.0733C27.5042 24.6911 27.4172 23.9365 27.0368 23.44C26.8399 23.1837 26.3102 22.8661 26.0049 22.8199ZM26.7072 24.2279C26.9543 24.0902 26.9983 23.8338 26.8213 23.5601C26.4809 23.0405 25.6423 22.9331 25.4267 23.3826C25.3193 23.6066 25.5796 24.032 25.9258 24.198C26.156 24.3084 26.5362 24.3232 26.7079 24.2263" fill="#F50DB4"/>
</svg>
