<svg width="32" height="32" viewBox="0 0 32 32" fill="none" xmlns="http://www.w3.org/2000/svg">
<path fill-rule="evenodd" clip-rule="evenodd" d="M20.2217 27.3092C16.8251 28.6759 13.7661 28.9716 11.2703 28.2944C8.74573 27.6081 6.88023 25.9413 5.93101 23.5874C5.01611 21.3186 5.38071 19.2708 6.09357 17.6985C6.57225 16.6704 7.21569 15.7275 7.99846 14.907C7.64731 14.4903 7.19659 13.944 6.75952 13.3655C6.17515 12.5939 5.53364 11.6696 5.23294 10.924C4.87743 10.0424 4.71423 9.0773 4.95996 8.17774C5.22207 7.22726 5.89686 6.50174 6.89914 6.09757C7.62995 5.7943 8.45071 5.79063 9.1842 6.08735C9.87502 6.36113 10.4606 6.85751 10.9541 7.42205C11.8207 8.41362 12.5632 9.8008 13.1899 11.2303L14.1502 10.843C13.6094 9.37743 13.183 7.86575 13.1183 6.54789C13.0826 5.8002 13.1601 5.03642 13.4664 4.36052C13.7875 3.65507 14.3368 3.09828 15.1194 2.78273C16.1229 2.37804 17.1135 2.43199 17.9596 2.93705C18.7614 3.41272 19.3133 4.22103 19.6688 5.10263C19.9695 5.8483 20.1486 6.95905 20.263 7.92018C20.3464 8.63976 20.4038 9.34618 20.4399 9.88988C21.5729 9.93786 22.6905 10.1707 23.7484 10.5791C25.3526 11.217 27.0358 12.4391 27.9507 14.7078C28.8999 17.0617 28.712 19.5552 27.3703 21.802C26.0424 24.0211 23.6327 25.9307 20.2395 27.302L20.2217 27.3092Z" fill="#633001"/>
<path d="M7.23728 6.936C5.7688 7.52818 5.53507 8.89698 6.1462 10.4125C6.63182 11.6167 8.39042 13.7107 9.09037 14.5199C9.16603 14.6087 9.2044 14.7234 9.19742 14.8399C9.19045 14.9564 9.13868 15.0657 9.05295 15.1449C8.06361 16.0829 5.27598 19.1831 6.84503 23.0741C8.4981 27.1734 13.2734 28.841 19.7845 26.2213L19.7998 26.2151C26.3068 23.5852 28.5894 19.0715 26.9363 14.9722C25.3673 11.0812 21.2094 10.7833 19.8456 10.7927C19.7287 10.7955 19.6154 10.7529 19.5293 10.6739C19.4432 10.5949 19.391 10.4856 19.3837 10.369C19.3278 9.30013 19.1419 6.57198 18.6563 5.36772C18.0451 3.85224 16.9265 3.03026 15.458 3.62243C13.3442 4.47483 14.0257 7.68105 15.2831 10.909C15.3233 11.0125 15.3213 11.1275 15.2778 11.2296C15.2342 11.3316 15.1524 11.4125 15.0499 11.455L12.9665 12.2951C12.8632 12.3356 12.7482 12.3341 12.646 12.2908C12.5438 12.2476 12.4626 12.166 12.4198 12.0637C11.0857 8.86515 9.35109 6.0836 7.23728 6.936Z" fill="#D1884F"/>
<path d="M19.27 24.9016C14.4873 26.8302 8.19213 26.3928 6.84802 23.0817L6.85417 23.0969C8.50877 27.2 13.2909 28.8664 19.8089 26.2379C26.3269 23.6095 28.6153 19.092 26.9612 14.9901L26.9546 14.9736C28.2835 18.2909 24.0515 22.9734 19.27 24.9016Z" fill="#FEDC90"/>
<path d="M13.8333 19.0818C14.2841 20.1997 13.9913 20.9972 13.3383 21.2605C12.6866 21.5233 11.9226 21.152 11.4718 20.0341C11.021 18.9163 11.3138 18.1188 11.9667 17.8555C12.6184 17.5927 13.3838 17.9634 13.8346 19.0813M21.5098 15.9862C21.9606 17.1041 21.6678 17.9016 21.0148 18.1649C20.3632 18.4277 19.5978 18.0569 19.147 16.9391C18.6962 15.8212 18.9903 15.0232 19.642 14.7604C20.2937 14.4976 21.059 14.8684 21.5098 15.9862Z" fill="#633001"/>
</svg>
