<svg width="29" height="26" viewBox="0 0 29 26" fill="none" xmlns="http://www.w3.org/2000/svg">
<path d="M21.9719 16.885C26.1199 18.9186 28.6492 21.3424 28.1357 23.1721C27.3934 25.817 20.5697 26.2137 12.896 24.06C5.2223 21.9063 -0.398553 18.0169 0.343749 15.3721C0.857251 13.5424 4.27998 12.7891 8.87879 13.2103C10.6392 14.2374 12.8049 15.15 15.2074 15.8243C17.6098 16.4986 19.935 16.843 21.9719 16.885ZM22.4764 8.66021C26.0179 10.3204 28.211 12.34 27.7885 13.8454C27.1983 15.9484 21.7297 16.2524 15.5738 14.5247C9.41787 12.797 4.90452 9.69145 5.49472 7.58852C5.91722 6.08312 8.84248 5.5 12.7307 5.925C14.2165 6.76107 15.7993 7.41171 17.4436 7.86234C19.0823 8.33309 20.7725 8.60105 22.4764 8.66021ZM19.4469 0.914313C24.0573 2.20825 27.4335 4.54659 26.9863 6.14C26.54 7.73032 22.4397 7.972 17.8293 6.67806C13.2189 5.38413 9.84317 3.04424 10.2895 1.45392C10.7367 -0.139488 14.8366 -0.379624 19.4469 0.914313Z" fill="black"/>
</svg>
