<svg width="805" height="251" viewBox="0 0 805 251" fill="none" xmlns="http://www.w3.org/2000/svg">
<path d="M225.077 143.473C220.934 153.471 178.747 151.417 136.818 134.041C94.888 116.665 55.6743 94.1573 59.8176 84.1592C63.9609 74.1612 123.74 68.2253 143.24 97.5186C162.74 126.812 229.22 133.475 225.077 143.473Z" fill="#7357FF"/>
<path d="M77.8836 67.3244C82.0269 57.3263 126.076 41.4065 168.006 58.7827C209.935 76.1589 243.941 124.426 239.797 134.424C235.654 144.422 175.57 149.063 156.07 119.77C136.569 90.4766 73.7403 77.3224 77.8836 67.3244Z" fill="#A391FF"/>
<path d="M78.2735 104.181L72.2843 118.633C67.3427 130.557 69.2566 141.874 78.0261 152.582C87.0706 163.405 101.765 173.032 122.109 181.463C142.727 190.007 159.924 193.596 173.697 192.23C187.746 190.977 197.241 184.389 202.183 172.464L208.172 158.012L231.677 167.753L255.182 177.494L249.381 191.493C244.064 204.323 234.474 213.083 220.612 217.774C206.749 222.464 190.389 223.466 171.53 220.779C152.671 218.093 132.932 212.478 112.313 203.933C91.6946 195.388 73.7698 185.396 58.5389 173.955C43.583 162.628 33.0019 150.461 26.7954 137.454C20.589 124.447 20.1443 111.528 25.4612 98.6981L31.2627 84.6987L78.2735 104.181Z" fill="#7357FF"/>
<path d="M83.308 92.0307L78.0771 104.653C73.7611 115.068 76.1463 125.247 85.2326 135.192C94.5938 145.25 109.446 154.494 129.79 162.925C150.409 171.47 167.447 175.441 180.904 174.839C194.635 174.351 203.659 168.899 207.975 158.485L213.206 145.862L236.712 155.603L259.975 165.504L255.15 177.571C250.506 188.777 241.487 196.161 228.091 199.724C214.696 203.286 198.684 203.447 180.055 200.207C161.426 196.966 141.802 191.074 121.183 182.529C100.564 173.984 82.5245 164.269 67.064 153.382C51.8784 142.609 40.9488 131.283 34.2751 119.403C27.6014 107.524 26.5865 95.9814 31.2302 84.7757L36.9814 71.0029L83.308 92.0307Z" fill="#5B45CE"/>
<path d="M89.5161 77.0376L84.2852 89.66C79.9692 100.075 82.3543 110.254 91.4406 120.199C100.802 130.257 115.654 139.501 135.998 147.932C156.617 156.477 173.655 160.448 187.112 159.846C200.844 159.358 209.867 153.906 214.183 143.491L219.414 130.869L242.92 140.61L265.978 151.003L261.358 162.578C256.714 173.784 247.695 181.168 234.3 184.73C220.904 188.293 204.892 188.454 186.263 185.214C167.634 181.973 148.01 176.081 127.391 167.536C106.772 158.991 88.7325 149.276 73.2721 138.389C58.0865 127.616 47.1568 116.29 40.4832 104.41C33.8095 92.5309 32.7945 80.9883 37.4383 69.7826L42.9854 56.5024L89.5161 77.0376Z" fill="#4835AB"/>
<path d="M83.1101 56.815C90.0812 59.7039 93.3905 67.6971 90.5016 74.6682C86.1856 85.0829 88.5707 95.2624 97.657 105.207C107.018 115.265 121.871 124.51 142.215 132.94C162.833 141.485 179.871 145.456 193.328 144.854C207.06 144.366 216.084 138.914 220.4 128.5C223.289 121.529 231.282 118.219 238.253 121.108L249.136 125.618L260.415 130.292C267.167 133.091 270.373 140.833 267.574 147.586C262.931 158.792 253.911 166.176 240.516 169.739C227.121 173.301 211.108 173.462 192.479 170.222C173.85 166.981 154.226 161.089 133.607 152.544C112.989 143.999 94.9489 134.284 79.4884 123.397C64.3029 112.624 53.3732 101.298 46.6996 89.4186C40.0259 77.5391 39.0109 65.9965 43.6547 54.7909C46.4531 48.0381 54.1959 44.8325 60.9486 47.631L83.1101 56.815Z" fill="#372982"/>
<path d="M74.2858 78.0942C81.257 80.9832 89.2502 77.6739 92.1391 70.7027C96.4551 60.2881 105.342 54.7796 118.798 54.1775C132.53 53.6892 149.568 57.6605 169.912 66.0913C190.531 74.6359 205.383 83.8805 214.47 93.8248C223.831 103.883 226.353 114.12 222.037 124.534C219.148 131.505 222.458 139.499 229.429 142.388L240.312 146.898L251.59 151.572C258.343 154.37 266.086 151.164 268.884 144.412C273.528 133.206 272.376 121.606 265.427 109.613C258.478 97.6195 247.274 86.1795 231.813 75.2928C216.353 64.406 198.313 54.6903 177.694 46.1457C157.076 37.601 137.452 31.7084 118.823 28.4679C100.468 25.3413 84.7309 25.6163 71.6106 29.293C58.4903 32.9696 49.6082 40.4107 44.9645 51.6164C42.166 58.3691 45.3716 66.1118 52.1244 68.9103L74.2858 78.0942Z" fill="#372982"/>
<path d="M519.526 39.501L519.516 140.304C519.516 154.627 523.232 165.414 530.665 172.665C538.28 179.917 548.795 183.543 562.211 183.543C575.808 183.543 586.323 179.917 593.756 172.665C601.37 165.414 605.177 154.627 605.177 140.304L605.187 39.501H636.188L636.178 139.761C636.178 155.171 632.824 168.224 626.117 178.92C619.409 189.616 610.435 197.593 599.194 202.851C587.954 208.108 575.536 210.737 561.939 210.737C548.342 210.737 535.923 208.108 524.683 202.851C513.624 197.593 504.831 189.616 498.305 178.92C491.778 168.224 488.515 155.171 488.515 139.761L488.524 39.501H519.526Z" fill="#372982"/>
<path d="M385.017 183.155L501.389 183.543L524.683 202.851L541.091 206.747L557.499 210.642L347.534 210.642V185.931L436.938 66.8181H347.534V39.3306H474.699V64.0416L385.017 183.155Z" fill="#372982"/>
<path d="M679.754 59.285C685.122 52.2512 692.434 46.328 701.689 41.5153C710.944 36.7027 721.402 34.2964 733.064 34.2964C746.391 34.2964 758.515 37.6282 769.436 44.2918C780.542 50.7704 789.242 59.9329 795.535 71.7794C801.829 83.6258 804.975 97.2308 804.975 112.594C804.975 127.958 801.829 141.748 795.535 153.964C789.242 165.996 780.542 175.436 769.436 182.285C758.515 188.949 746.391 192.28 733.064 192.28C721.402 192.28 711.037 189.967 701.967 185.339C692.897 180.526 685.493 174.603 679.754 167.569V230.547H648.102V39.501H679.754V59.285ZM772.768 112.594C772.768 102.043 770.547 92.9734 766.104 85.3843C761.847 77.61 756.109 71.7794 748.89 67.8922C741.856 63.82 734.267 61.7839 726.122 61.7839C718.163 61.7839 710.574 63.82 703.355 67.8922C696.321 71.9645 690.583 77.8877 686.14 85.6619C681.883 93.4362 679.754 102.599 679.754 113.149C679.754 123.7 681.883 132.955 686.14 140.915C690.583 148.689 696.321 154.612 703.355 158.685C710.574 162.757 718.163 164.793 726.122 164.793C734.267 164.793 741.856 162.757 748.89 158.685C756.109 154.427 761.847 148.319 766.104 140.359C770.547 132.4 772.768 123.145 772.768 112.594Z" fill="#372982"/>
<path d="M239.206 68.4201C240.959 65.3825 241.433 61.7729 240.525 58.3855C239.617 54.998 237.4 52.1101 234.362 50.3571C231.324 48.6041 227.715 48.1295 224.327 49.0379C220.94 49.9462 218.052 52.163 216.299 55.2007L177.627 121.305M205.729 33.8327C202.691 32.0797 199.082 31.6052 195.694 32.5135C192.307 33.4219 189.419 35.6387 187.666 38.6763L156.333 92.0762M209.689 66.654L181.056 50.1297M199.775 83.834L171.141 67.3096M190.953 98.6015L162.319 82.0771" stroke="url(#paint0_linear_1364_71)" stroke-width="6.61189" stroke-linecap="round" stroke-linejoin="round"/>
<defs>
<linearGradient id="paint0_linear_1364_71" x1="220.045" y1="42.0949" x2="184.319" y2="106.077" gradientUnits="userSpaceOnUse">
<stop offset="0.61941" stop-color="#7357FF"/>
<stop offset="1" stop-color="#453499" stop-opacity="0"/>
</linearGradient>
</defs>
</svg>
