<svg width="167" height="41" viewBox="0 0 167 41" fill="none" xmlns="http://www.w3.org/2000/svg">
<path d="M40.8892 19.9632C30.0485 19.9632 21.2697 11.1756 21.2697 0.34375H20.5087V19.9632H0.88916V20.7243C11.7299 20.7243 20.5087 29.5119 20.5087 40.3437H21.2697V20.7243H40.8892V19.9632Z" fill="#FC0FA4"/>
<path d="M61.7693 31.2278C56.5213 31.2278 53.3213 28.2517 53.3213 22.7797V8.82776H56.6493V22.5877C56.6493 26.1398 58.3133 28.4437 61.7693 28.4437C65.5133 28.4437 66.8893 26.1398 66.8893 22.5877V8.82776H70.2173V22.7797C70.2173 28.2517 67.0173 31.2278 61.7693 31.2278ZM73.129 30.8438V15.0357H76.265V17.2757H76.297C77.193 15.8997 78.953 14.6517 81.353 14.6517C84.873 14.6517 86.953 16.7637 86.953 20.6037V30.8438H83.785V21.9797C83.785 19.1317 83.145 17.3077 80.489 17.3077C77.833 17.3077 76.297 19.4517 76.297 22.0117V30.8438H73.129ZM89.8803 30.8438V15.0357H93.0483V30.8438H89.8803ZM89.8803 12.5717V8.82776H93.0483V12.5717H89.8803ZM102.915 31.2278C98.2755 31.2278 95.1395 27.8677 95.1395 22.9077C95.1395 18.0437 98.2755 14.6517 102.947 14.6517C107.043 14.6517 109.315 17.0517 110.147 20.0277L106.947 20.7957C106.531 18.8117 105.315 17.1797 102.947 17.1797C100.419 17.1797 98.4675 19.1957 98.4675 22.9077C98.4675 26.6837 100.355 28.6997 103.011 28.6997C105.219 28.6997 106.595 27.3237 107.107 25.0837L110.275 25.8517C109.315 28.8277 107.107 31.2278 102.915 31.2278ZM111.976 30.8438V8.82776H115.144V17.2437H115.176C116.168 15.7077 117.8 14.6517 120.2 14.6517C123.72 14.6517 125.8 16.7637 125.8 20.6037V30.8438H122.632V21.9797C122.632 19.1317 121.992 17.3077 119.336 17.3077C116.68 17.3077 115.144 19.4517 115.144 22.0117V30.8438H111.976ZM133.336 31.2278C130.488 31.2278 127.928 29.4997 127.928 26.5557C127.928 23.6757 129.944 22.3637 133.368 21.6917L135.544 21.2437C137.24 20.8917 138.04 20.5397 138.04 19.2277C138.04 17.9157 136.952 16.9877 135.032 16.9877C132.952 16.9877 131.608 18.2677 131.48 20.3797L128.216 20.0917C128.44 16.6997 131.16 14.6517 135.064 14.6517C139.096 14.6517 141.24 16.6037 141.24 19.9317V30.8438H138.2V28.9877H138.168C137.432 30.2037 135.8 31.2278 133.336 31.2278ZM134.168 28.9557C136.408 28.9557 138.168 27.4837 138.168 24.8597V22.9397C134.84 23.4837 133.272 23.9317 132.312 24.5397C131.576 24.9877 131.16 25.6277 131.16 26.4917C131.16 27.9637 132.376 28.9557 134.168 28.9557ZM144.198 30.8438V15.0357H147.366V30.8438H144.198ZM144.198 12.5717V8.82776H147.366V12.5717H144.198ZM150.449 30.8438V15.0357H153.585V17.2757H153.617C154.513 15.8997 156.273 14.6517 158.673 14.6517C162.193 14.6517 164.273 16.7637 164.273 20.6037V30.8438H161.105V21.9797C161.105 19.1317 160.465 17.3077 157.809 17.3077C155.153 17.3077 153.617 19.4517 153.617 22.0117V30.8438H150.449Z" fill="#FC0FA4"/>
<path opacity="0.7" d="M61.7693 31.2278C56.5213 31.2278 53.3213 28.2517 53.3213 22.7797V8.82776H56.6493V22.5877C56.6493 26.1398 58.3133 28.4437 61.7693 28.4437C65.5133 28.4437 66.8893 26.1398 66.8893 22.5877V8.82776H70.2173V22.7797C70.2173 28.2517 67.0173 31.2278 61.7693 31.2278ZM73.129 30.8438V15.0357H76.265V17.2757H76.297C77.193 15.8997 78.953 14.6517 81.353 14.6517C84.873 14.6517 86.953 16.7637 86.953 20.6037V30.8438H83.785V21.9797C83.785 19.1317 83.145 17.3077 80.489 17.3077C77.833 17.3077 76.297 19.4517 76.297 22.0117V30.8438H73.129ZM89.8803 30.8438V15.0357H93.0483V30.8438H89.8803ZM89.8803 12.5717V8.82776H93.0483V12.5717H89.8803ZM102.915 31.2278C98.2755 31.2278 95.1395 27.8677 95.1395 22.9077C95.1395 18.0437 98.2755 14.6517 102.947 14.6517C107.043 14.6517 109.315 17.0517 110.147 20.0277L106.947 20.7957C106.531 18.8117 105.315 17.1797 102.947 17.1797C100.419 17.1797 98.4675 19.1957 98.4675 22.9077C98.4675 26.6837 100.355 28.6997 103.011 28.6997C105.219 28.6997 106.595 27.3237 107.107 25.0837L110.275 25.8517C109.315 28.8277 107.107 31.2278 102.915 31.2278ZM111.976 30.8438V8.82776H115.144V17.2437H115.176C116.168 15.7077 117.8 14.6517 120.2 14.6517C123.72 14.6517 125.8 16.7637 125.8 20.6037V30.8438H122.632V21.9797C122.632 19.1317 121.992 17.3077 119.336 17.3077C116.68 17.3077 115.144 19.4517 115.144 22.0117V30.8438H111.976ZM133.336 31.2278C130.488 31.2278 127.928 29.4997 127.928 26.5557C127.928 23.6757 129.944 22.3637 133.368 21.6917L135.544 21.2437C137.24 20.8917 138.04 20.5397 138.04 19.2277C138.04 17.9157 136.952 16.9877 135.032 16.9877C132.952 16.9877 131.608 18.2677 131.48 20.3797L128.216 20.0917C128.44 16.6997 131.16 14.6517 135.064 14.6517C139.096 14.6517 141.24 16.6037 141.24 19.9317V30.8438H138.2V28.9877H138.168C137.432 30.2037 135.8 31.2278 133.336 31.2278ZM134.168 28.9557C136.408 28.9557 138.168 27.4837 138.168 24.8597V22.9397C134.84 23.4837 133.272 23.9317 132.312 24.5397C131.576 24.9877 131.16 25.6277 131.16 26.4917C131.16 27.9637 132.376 28.9557 134.168 28.9557ZM144.198 30.8438V15.0357H147.366V30.8438H144.198ZM144.198 12.5717V8.82776H147.366V12.5717H144.198ZM150.449 30.8438V15.0357H153.585V17.2757H153.617C154.513 15.8997 156.273 14.6517 158.673 14.6517C162.193 14.6517 164.273 16.7637 164.273 20.6037V30.8438H161.105V21.9797C161.105 19.1317 160.465 17.3077 157.809 17.3077C155.153 17.3077 153.617 19.4517 153.617 22.0117V30.8438H150.449Z" fill="#FC0FA4"/>
</svg>
