<svg width="1280" height="832" viewBox="0 0 1280 832" fill="none" xmlns="http://www.w3.org/2000/svg">
<line y1="496.774" x2="1359.09" y2="496.774" stroke="#7357FF" stroke-opacity="0.05" stroke-width="1.13352"/>
<line y1="786.956" x2="1359.09" y2="786.956" stroke="#7357FF" stroke-opacity="0.05" stroke-width="1.13352"/>
<line y1="206.593" x2="1359.09" y2="206.593" stroke="#7357FF" stroke-opacity="0.05" stroke-width="1.13352"/>
<line y1="351.683" x2="1359.09" y2="351.683" stroke="#7357FF" stroke-opacity="0.05" stroke-width="1.13352"/>
<line y1="641.864" x2="1359.09" y2="641.864" stroke="#7357FF" stroke-opacity="0.05" stroke-width="1.13352"/>
<line y1="61.5011" x2="1359.09" y2="61.5011" stroke="#7357FF" stroke-opacity="0.05" stroke-width="1.13352"/>
<line y1="424.228" x2="1359.09" y2="424.228" stroke="#7357FF" stroke-opacity="0.05" stroke-width="1.13352"/>
<line y1="714.41" x2="1359.09" y2="714.41" stroke="#7357FF" stroke-opacity="0.05" stroke-width="1.13352"/>
<line y1="134.047" x2="1359.09" y2="134.047" stroke="#7357FF" stroke-opacity="0.05" stroke-width="1.13352"/>
<line y1="279.137" x2="1359.09" y2="279.137" stroke="#7357FF" stroke-opacity="0.05" stroke-width="1.13352"/>
<line y1="569.32" x2="1359.09" y2="569.32" stroke="#7357FF" stroke-opacity="0.05" stroke-width="1.13352"/>
<line x1="42.5069" y1="-109.094" x2="42.5069" y2="940.548" stroke="#7357FF" stroke-opacity="0.05" stroke-width="1.13352"/>
<line x1="622.874" y1="-109.094" x2="622.874" y2="940.548" stroke="#7357FF" stroke-opacity="0.05" stroke-width="1.13352"/>
<line x1="332.69" y1="-109.094" x2="332.69" y2="940.548" stroke="#7357FF" stroke-opacity="0.05" stroke-width="1.13352"/>
<line x1="913.053" y1="-109.094" x2="913.053" y2="940.548" stroke="#7357FF" stroke-opacity="0.05" stroke-width="1.13352"/>
<line x1="1203.24" y1="-109.094" x2="1203.24" y2="940.548" stroke="#7357FF" stroke-opacity="0.05" stroke-width="1.13352"/>
<line x1="187.598" y1="-109.094" x2="187.598" y2="940.548" stroke="#7357FF" stroke-opacity="0.05" stroke-width="1.13352"/>
<line x1="767.962" y1="-109.094" x2="767.962" y2="940.548" stroke="#7357FF" stroke-opacity="0.05" stroke-width="1.13352"/>
<line x1="477.782" y1="-109.094" x2="477.782" y2="940.548" stroke="#7357FF" stroke-opacity="0.05" stroke-width="1.13352"/>
<line x1="1058.14" y1="-109.094" x2="1058.14" y2="940.548" stroke="#7357FF" stroke-opacity="0.05" stroke-width="1.13352"/>
<line x1="115.055" y1="-109.094" x2="115.055" y2="940.548" stroke="#7357FF" stroke-opacity="0.05" stroke-width="1.13352"/>
<line x1="695.417" y1="-109.094" x2="695.417" y2="940.548" stroke="#7357FF" stroke-opacity="0.05" stroke-width="1.13352"/>
<line x1="405.234" y1="-109.094" x2="405.234" y2="940.548" stroke="#7357FF" stroke-opacity="0.05" stroke-width="1.13352"/>
<line x1="985.601" y1="-109.094" x2="985.601" y2="940.548" stroke="#7357FF" stroke-opacity="0.05" stroke-width="1.13352"/>
<line x1="1275.78" y1="-109.094" x2="1275.78" y2="940.548" stroke="#7357FF" stroke-opacity="0.05" stroke-width="1.13352"/>
<line x1="260.146" y1="-109.094" x2="260.146" y2="940.548" stroke="#7357FF" stroke-opacity="0.05" stroke-width="1.13352"/>
<line x1="840.509" y1="-109.094" x2="840.509" y2="940.548" stroke="#7357FF" stroke-opacity="0.05" stroke-width="1.13352"/>
<line x1="550.325" y1="-109.094" x2="550.325" y2="940.548" stroke="#7357FF" stroke-opacity="0.05" stroke-width="1.13352"/>
<line x1="1130.69" y1="-109.094" x2="1130.69" y2="940.548" stroke="#7357FF" stroke-opacity="0.05" stroke-width="1.13352"/>
</svg>
