<svg width="123" height="31" viewBox="0 0 123 31" fill="none" xmlns="http://www.w3.org/2000/svg">
<g clip-path="url(#clip0_1_2214)">
<path d="M6.63964 14.2954C6.63964 14.2954 6.63964 14.2911 6.63534 14.2868L10.1876 10.6793C10.1876 10.6793 10.1961 10.6793 10.1961 10.6836C10.1876 11.067 10.2261 11.4505 10.3119 11.8232C10.3783 12.3545 10.8025 12.618 11.321 12.4723L11.5931 12.4616C12.3322 12.513 13.2856 11.8618 13.3585 11.8104C13.3606 11.8104 13.3628 11.8104 13.3649 11.8104C13.3799 11.8468 13.487 12.0846 13.682 12.1703C13.9862 12.301 14.0998 12.1339 14.2497 12.3823C14.2497 12.3909 14.2497 12.3974 14.2497 12.4059C14.1576 12.5173 14.1083 12.6651 14.1276 12.8194C14.1276 12.828 14.1319 12.8344 14.134 12.8429C14.1362 12.8622 14.1426 12.8794 14.1469 12.8986C14.149 12.9093 14.1512 12.9222 14.1555 12.9329C14.1876 13.0336 14.2497 13.1214 14.3354 13.1836C14.3419 13.1878 14.3483 13.1921 14.3547 13.1942C14.3697 13.2028 14.3826 13.2135 14.3975 13.2221C14.4083 13.2285 14.4212 13.2328 14.434 13.2392C14.4361 13.2392 14.4404 13.2414 14.4425 13.2435C14.4661 13.2542 14.4897 13.2628 14.5133 13.2714C14.5261 13.2757 14.539 13.28 14.5518 13.2821C14.5625 13.2842 14.5732 13.2864 14.5839 13.2885C14.7339 13.3164 14.8968 13.3035 15.0725 13.1171C15.1731 13.0122 15.2396 12.8729 15.2331 12.7251C15.2181 12.4016 14.9311 12.1638 14.6161 12.2045C14.6033 12.2045 14.5925 12.211 14.5818 12.2131C14.5647 12.2153 14.5497 12.2196 14.5325 12.2238C14.524 12.226 14.5154 12.2281 14.5068 12.2303C14.4875 12.181 14.4576 12.136 14.419 12.0932C14.0205 11.5426 14.5282 11.3305 15.0382 11.2384C15.1089 11.2256 15.2481 11.2213 15.2524 11.2213C15.3017 11.3498 15.3981 11.4526 15.5181 11.5126C15.6124 11.5597 15.7195 11.5812 15.833 11.5662C16.1244 11.5298 16.3322 11.2706 16.3108 10.9792C16.3108 10.9707 16.3108 10.9599 16.3108 10.9513C16.2958 10.8271 16.2379 10.72 16.1565 10.6364C16.133 10.6129 16.1094 10.5914 16.0816 10.5722C16.0687 10.5636 16.0558 10.555 16.043 10.5486C15.9423 10.4886 15.8223 10.4586 15.698 10.4758C15.4645 10.5058 15.2867 10.6771 15.2331 10.8914C15.1582 10.9042 14.7339 10.9556 14.5347 10.9685C14.0247 10.9257 14.3226 10.4329 14.5754 10.2444C14.6311 10.1909 14.7939 10.118 14.8518 10.0902C14.8882 10.118 14.9311 10.1416 14.9739 10.1587C15.0596 10.1952 15.156 10.2123 15.2567 10.2016C15.2653 10.2016 15.2738 10.1973 15.2824 10.1951C15.5695 10.1459 15.7709 9.88025 15.7345 9.58677C15.7109 9.40037 15.5973 9.24829 15.4431 9.16902C15.3552 9.12402 15.2524 9.10259 15.1474 9.11118C15.1388 9.11118 15.1303 9.11118 15.1217 9.11118C14.8218 9.14975 14.6097 9.4218 14.644 9.7217C14.389 9.9488 13.5534 10.7371 13.5984 9.77529C13.6027 9.69385 13.6091 9.61245 13.6006 9.53105C13.6006 9.52676 13.6006 9.52463 13.5984 9.52246C13.5984 9.52246 13.5984 9.52246 13.6006 9.52246C13.8748 9.4625 14.0655 9.20329 14.029 8.92053C13.9969 8.66558 13.7934 8.47493 13.5491 8.44494C13.4163 8.42993 13.277 8.44494 13.1228 8.60344C12.9642 8.76628 12.8893 9.00835 12.9835 9.21401C13.035 9.32539 13.1207 9.41538 13.2256 9.47105C13.2256 9.47105 13.2256 9.47322 13.2278 9.47534C13.2256 9.67029 13.2813 9.8674 13.2106 10.0559C13.1013 10.3322 12.8357 10.6343 13.0478 11.0413C13.0585 11.0606 12.3065 11.3884 12.0515 11.2791C11.9723 11.2448 11.8716 11.097 11.8223 11.0263C11.0767 10.0023 12.9728 9.18403 11.3402 8.10005C11.1881 7.99934 11.051 7.81086 11.5117 7.65874C11.6873 7.6009 12.5529 7.32886 12.6257 7.30312C14.1426 6.774 15.1539 5.19304 15.983 3.81773C16.5829 2.8216 16.7393 1.75476 16.8443 1.09281C16.9257 0.585109 16.5808 0.0966771 16.0708 0.019557C15.6274 -0.0468521 15.1239 0.0581166 14.856 0.300188C14.2862 0.711496 13.6477 1.02212 13.0563 1.38201C12.8443 1.21278 12.5593 1.13138 12.2508 1.21707C11.9851 1.2899 11.7644 1.49341 11.6616 1.75048C11.5502 2.0354 11.5931 2.29889 11.7109 2.51311C11.6938 2.53454 11.6766 2.55595 11.6595 2.57738C11.1988 3.21362 10.7232 3.81344 10.6096 4.55896C10.4147 5.82713 9.35844 6.05635 8.75212 6.43123C8.75212 6.43123 8.74999 6.43123 8.74782 6.43123C8.62143 6.23845 8.43503 6.08633 8.21223 5.99209C7.50304 5.62576 5.86836 6.85757 5.7762 5.92354C5.74834 5.64719 5.86619 4.89739 5.88762 4.90598C6.31826 5.06448 6.58393 4.76462 6.8453 4.62109C7.02316 4.52681 7.22669 4.55679 7.41734 4.5311C7.41734 4.5311 7.41951 4.5311 7.42164 4.5311C7.49019 4.62747 7.5909 4.70249 7.70657 4.73889C7.92512 4.80745 8.15435 4.70249 8.29575 4.52468C8.43503 4.35115 8.43291 4.20976 8.40075 4.08123C8.34075 3.84344 8.12654 3.66563 7.86941 3.66563C7.58231 3.66563 7.34879 3.88628 7.32523 4.16691C7.32523 4.16691 7.32523 4.16691 7.32523 4.16905C7.32093 4.16905 7.31881 4.16905 7.31451 4.16905C7.23311 4.17119 7.15384 4.18834 7.0724 4.20119C6.12331 4.36614 6.80031 3.43856 6.9953 3.15793C7.29737 3.15793 7.54161 2.91157 7.54161 2.60952C7.54161 2.60095 7.53948 2.59238 7.53948 2.58381C7.53519 2.47884 7.50091 2.38029 7.4452 2.29889C7.34666 2.15536 7.1817 2.0611 6.99313 2.0611C6.69748 2.0611 6.45966 2.29247 6.44682 2.58381C6.44682 2.59238 6.44465 2.60095 6.44465 2.60952C6.44465 2.7102 6.47467 2.80445 6.52179 2.88586C6.54535 2.92656 6.57321 2.96512 6.60536 2.99726C6.58393 3.05939 6.53464 3.22862 6.48752 3.29074C6.33327 3.56495 5.87903 3.92055 5.77407 3.42142C5.76123 3.22219 5.76123 2.79589 5.76335 2.71877C5.97119 2.63951 6.11901 2.44028 6.11901 2.20678C6.11901 2.08039 6.07402 1.9647 6.00329 1.87259C5.99475 1.85974 5.98403 1.84902 5.97331 1.83831C5.95188 1.81474 5.92619 1.79332 5.90046 1.7719C5.80835 1.7012 5.6948 1.65837 5.56841 1.65837C5.55982 1.65837 5.5491 1.65837 5.54055 1.65837C5.24915 1.67336 5.01776 1.91115 5.01776 2.20463C5.01776 2.31817 5.05203 2.42314 5.10992 2.50882C5.18489 2.62022 5.29844 2.70377 5.43343 2.7359C5.43343 2.74019 5.44839 2.87943 5.44414 2.95227C5.41629 3.46855 5.26846 3.99982 4.67281 3.67205C4.62782 3.63992 4.57858 3.61637 4.52716 3.60351C4.52716 3.59494 4.52928 3.58636 4.53141 3.57779C4.53358 3.56066 4.53571 3.54352 4.53571 3.52853C4.53571 3.51781 4.54 3.50497 4.54 3.49426C4.54 3.17506 4.27004 2.92014 3.94653 2.94585C3.80084 2.95656 3.67015 3.04224 3.57802 3.15364C3.41519 3.35286 3.42162 3.51567 3.46876 3.66134C3.47304 3.67206 3.47518 3.68277 3.47947 3.69348C3.48375 3.70634 3.49019 3.71704 3.49661 3.7299C3.50733 3.75346 3.52018 3.77703 3.53303 3.7963C3.53303 3.79845 3.53732 3.8006 3.53732 3.80488C3.54375 3.8156 3.55017 3.82844 3.55874 3.83701C3.56731 3.852 3.58017 3.86271 3.59089 3.87557C3.59517 3.88199 3.59945 3.88628 3.60588 3.89271C3.67658 3.96769 3.77299 4.0191 3.87583 4.04052C3.88654 4.04267 3.8994 4.04267 3.91011 4.04481C3.92939 4.04695 3.94868 4.04909 3.96582 4.05123C3.97439 4.05123 3.98296 4.05337 3.98938 4.05337C4.14578 4.05337 4.28504 3.98697 4.3836 3.882C4.39003 3.882 4.3986 3.87985 4.40717 3.87771C4.67069 3.99553 4.51858 4.12835 4.68783 4.41327C4.79496 4.59536 5.04349 4.67246 5.08419 4.68318C5.08636 4.68318 5.08848 4.68748 5.08631 4.6896C5.04132 4.75386 4.53358 5.50579 4.66214 6.52334C4.86568 8.14075 7.07882 7.75945 7.25025 7.76157C7.25455 7.76157 7.25667 7.76799 7.25238 7.77012L4.18435 10.8378L2.45751 12.5687L0.722095 14.2997C-0.820492 15.842 0.272172 18.477 2.45322 18.477H7.28236C7.28236 18.477 7.28453 18.4813 7.28666 18.4855L1.37769 30.2978L5.55552 26.1205L7.29095 24.3895L9.01779 22.6586C9.84691 21.8296 12.3322 19.3446 13.1999 18.477L17.3778 14.2997H6.64394L6.63964 14.2954ZM14.374 2.60737C14.7961 2.68663 15.141 3.03368 15.2224 3.4557C15.3659 4.21619 14.7125 4.86958 13.9519 4.72605C13.5299 4.64678 13.1849 4.29973 13.1035 3.87771C12.9599 3.11722 13.6134 2.46384 14.374 2.60737Z" fill="#1ED760"/>
<path d="M32.1052 18.1365C31.1796 19.0255 29.7656 19.6382 27.0618 19.6382C26.5026 19.6382 25.0886 19.6382 23.5545 19.2376C23.3446 19.1862 22.1576 18.9227 21.4956 18.19C21.0585 17.7187 20.9021 17.1425 20.8507 16.532L25.005 16.3392C25.0757 16.6005 25.1442 16.7226 25.2321 16.8276C25.652 17.2989 26.5925 17.4381 27.1346 17.4381C27.8159 17.4381 28.268 17.2989 28.4951 17.1232C28.7051 16.9668 28.7565 16.7226 28.7565 16.6177C28.7565 16.4613 28.6686 16.3028 28.5294 16.2171C28.1287 15.9557 26.8882 15.8507 25.5449 15.6237C24.9171 15.5187 24.3066 15.3966 23.6938 15.2231C23.0296 15.0496 22.2798 14.8225 21.8084 14.2976C21.5813 14.0534 21.2856 13.565 21.2856 12.7788C21.2856 11.2428 22.5433 10.6494 22.9782 10.4395C23.8159 10.056 25.02 9.77539 27.0618 9.77539C29.8534 9.77539 31.3896 10.4566 32.2273 11.4677C32.3151 11.5727 32.5765 11.9047 32.7501 12.2882C32.8015 12.4103 32.8551 12.5839 32.9236 12.8645L28.84 13.0401C28.8057 12.8645 28.7886 12.8474 28.7351 12.7617C28.508 12.3611 27.8266 12.0119 26.7983 12.029C25.9263 12.029 25.3328 12.3075 25.3328 12.7788C25.3328 12.8495 25.3499 13.0059 25.5063 13.128C25.8898 13.4429 27.4603 13.5821 27.9316 13.6335C28.6129 13.7213 29.2921 13.8071 29.9563 13.912C30.0441 13.9292 31.231 14.0855 31.8931 14.454C32.8529 14.996 32.9408 15.9021 32.9408 16.2856C32.9408 16.7398 32.8529 17.4017 32.103 18.1365H32.1052Z" fill="black"/>
<path d="M45.7894 17.7353C45.2129 18.5215 43.9746 19.6718 41.6178 19.6718C39.8203 19.6718 38.8776 19.0078 38.2498 18.5729V22.5703H34.1663V10.0918H38.2498V11.0172C38.4598 10.8437 38.6333 10.7023 38.8604 10.5631C39.2975 10.2846 40.2402 9.86475 41.6007 9.86475C42.177 9.86475 44.0452 9.95256 45.3888 11.2958C46.6097 12.5339 46.6975 14.2799 46.6975 14.8026C46.6975 15.2739 46.6464 16.5828 45.7894 17.7353ZM41.7914 13.093C41.3543 12.7268 40.8658 12.6218 40.2894 12.656C38.5797 12.7439 38.2477 14.1042 38.2477 14.7147C38.2477 14.8368 38.2648 15.1689 38.4041 15.5181C38.8754 16.7049 40.0281 16.8098 40.4287 16.8098C40.6215 16.8098 41.11 16.8098 41.5814 16.5313C42.4534 16.0258 42.5241 15.0125 42.5241 14.7169C42.5241 14.4384 42.4726 13.6351 41.7914 13.093Z" fill="black"/>
<path d="M51.8631 15.291C51.8802 15.396 51.9341 15.6231 52.0562 15.8844C52.6494 17.1419 54.0463 17.264 54.4298 17.264C55.2333 17.264 55.9126 16.9148 56.1224 16.7585C56.296 16.6363 56.4548 16.4799 56.5059 16.4264L60.7996 16.6363C60.6259 16.9855 60.2574 17.6132 59.4732 18.2066C59.3511 18.3116 59.002 18.5558 58.5842 18.7657C56.9088 19.5691 54.674 19.6033 54.2371 19.6033C52.2465 19.6033 49.9091 19.1492 48.5638 17.5082C48.1803 17.0369 47.6042 16.165 47.6042 14.6633C47.6042 14.1749 47.6747 12.971 48.5294 11.8892C48.8957 11.435 49.2963 11.1394 49.4722 11.0173C50.449 10.3361 51.7066 9.81335 54.2715 9.83049C56.2255 9.83049 58.3034 10.1261 59.7346 11.6278C59.996 11.9063 60.5725 12.5704 60.8511 13.6008C61.0071 14.1771 61.0243 14.6998 61.0437 15.2932H51.8631V15.291ZM54.3592 12.2019C54.0807 12.2019 53.0329 12.2191 52.3858 12.9882C52.176 13.2495 52.1244 13.3887 52.0023 13.6865H56.7161C56.4887 13.0588 55.9126 12.2041 54.3592 12.2041V12.2019Z" fill="black"/>
<path d="M66.0338 15.291C66.0505 15.396 66.1043 15.6231 66.2264 15.8844C66.8197 17.1419 68.2166 17.264 68.6001 17.264C69.4036 17.264 70.0829 16.9148 70.2927 16.7585C70.4663 16.6363 70.6251 16.4799 70.6762 16.4264L74.9698 16.6363C74.7962 16.9855 74.4277 17.6132 73.6435 18.2066C73.5214 18.3116 73.1723 18.5558 72.7522 18.7657C71.0768 19.5691 68.8425 19.6033 68.4074 19.6033C66.4173 19.6033 64.0798 19.1492 62.7341 17.5082C62.3506 17.0369 61.7745 16.165 61.7745 14.6633C61.7745 14.1749 61.845 12.971 62.6997 11.8892C63.0664 11.435 63.4671 11.1394 63.6425 11.0173C64.6198 10.3361 65.8773 9.81335 68.4418 9.83049C70.3958 9.83049 72.4737 10.1261 73.9049 11.6278C74.1663 11.9063 74.7428 12.5704 75.0214 13.6008C75.1779 14.1771 75.195 14.6998 75.214 15.2932H66.0338V15.291ZM68.5295 12.2019C68.251 12.2019 67.2032 12.2191 66.5566 12.9882C66.3463 13.2495 66.2952 13.3887 66.1731 13.6865H70.8864C70.6594 13.0588 70.0829 12.2041 68.5295 12.2041V12.2019Z" fill="black"/>
<path d="M81.5322 16.7222H87.5719V19.34H75.8783V16.705L81.9695 12.6734H76.3495V10.0898H87.6257V12.6905L81.5345 16.7222H81.5322Z" fill="black"/>
<path d="M97.3631 19.3404C97.2582 18.9205 97.241 18.8863 97.2066 18.4492C96.579 18.7278 94.762 19.6018 92.6154 19.6018C89.6136 19.6018 88.5491 18.0658 88.5491 16.6348C88.5491 16.4077 88.5831 15.675 89.0203 15.0817C89.5431 14.349 90.5221 14.0341 90.7301 13.9827C92.3174 13.5114 95.5122 13.4771 97.1361 13.4407C97.1361 13.1451 97.1189 12.9352 96.943 12.6909C96.5423 12.1854 95.7048 12.1318 95.1455 12.1318C94.5865 12.1318 93.5044 12.2025 93.0694 12.6545C92.9645 12.7595 92.9473 12.8302 92.8962 12.9695H88.9344C89.0226 12.4639 89.2302 11.1893 90.5587 10.508C91.379 10.0881 92.8446 9.77539 95.0084 9.77539C95.3408 9.77539 97.0162 9.77539 98.3593 10.0367C98.6035 10.0881 99.7028 10.2467 100.384 10.945C101.205 11.7655 101.134 12.8131 101.134 13.1622V17.9973C101.134 18.8177 101.307 19.0277 101.64 19.3404H97.3631ZM94.4495 15.2573C93.6288 15.328 93.1747 15.4137 92.9134 15.7286C92.8424 15.7993 92.7203 15.9728 92.7203 16.2342C92.7203 16.4441 92.808 16.5834 92.8424 16.6348C93.0355 16.9304 93.4189 17.1575 94.1515 17.1575C94.4834 17.1575 95.2676 17.0868 96.0711 16.6519C96.1589 16.6005 96.5084 16.4077 96.7526 16.1292C97.0312 15.8143 97.1017 15.5187 97.1894 15.0988C96.281 15.1524 95.3575 15.1695 94.4495 15.2552V15.2573Z" fill="black"/>
<path d="M109.213 13.4937C109.003 13.4937 108.793 13.5109 108.603 13.528C108.392 13.5451 107.486 13.6159 107.137 14.3485C106.998 14.627 106.981 14.9076 106.981 15.2032V19.3399H102.88V10.0897H107V11.555C107.681 10.4904 108.815 10.124 109.218 10.0191C109.445 9.96548 109.706 9.9312 110.194 9.91406V13.5623C109.863 13.528 109.55 13.4916 109.218 13.4916L109.213 13.4937Z" fill="black"/>
<path d="M118.882 19.3402V18.4319C118.55 18.6761 118.428 18.7639 118.218 18.8689C117.798 19.0959 116.736 19.5501 115.39 19.5501C113.714 19.5501 112.616 18.8689 112.108 18.4683C111.846 18.2412 111.426 17.8578 111.06 17.1251C110.677 16.3925 110.484 15.572 110.484 14.7515C110.484 14.3145 110.554 13.0763 111.27 11.9409C111.776 11.1376 113.016 9.77725 115.459 9.79438C117.344 9.79438 118.252 10.527 118.88 11.0155V7.01807H123V19.3402H118.88H118.882ZM118.709 13.7211C118.499 13.267 117.976 12.5879 116.772 12.5879C115.497 12.5879 114.608 13.3376 114.608 14.6637C114.608 14.8372 114.608 15.1864 114.782 15.6063C115.114 16.4096 115.881 16.8273 116.736 16.8273C118.01 16.8273 118.882 15.919 118.882 14.6637C118.882 14.5244 118.882 14.1046 118.709 13.7211Z" fill="black"/>
</g>
<defs>
<clipPath id="clip0_1_2214">
<rect width="123" height="30.2978" fill="white"/>
</clipPath>
</defs>
</svg>
