<svg width="256" height="256" viewBox="0 0 256 256" fill="none" xmlns="http://www.w3.org/2000/svg">
<path fill-rule="evenodd" clip-rule="evenodd" d="M37.5 37.49C61.48 13.494 94.06 0 128 0C161.94 0 194.52 13.494 218.5 37.49C242.5 61.486 256 94.066 256 128C256 161.934 242.5 194.514 218.5 218.51C194.52 242.506 161.94 256 128 256C94.06 256 61.48 242.506 37.5 218.51C13.5 194.514 0 161.934 0 128C0.00686897 94.0517 13.4954 61.4956 37.5 37.49ZM132.58 94.496C120.14 99.6747 95.26 110.392 57.94 126.648C51.88 129.058 48.7 131.416 48.42 133.72C47.9275 137.612 52.8019 139.147 59.4253 141.233C60.3337 141.519 61.2751 141.816 62.24 142.13C68.78 144.254 77.58 146.74 82.14 146.838C86.3 146.928 90.92 145.218 96.02 141.71C130.9 118.176 148.88 106.28 150.02 106.024C150.82 105.844 151.92 105.616 152.66 106.282C153.42 106.946 153.34 108.206 153.26 108.544C152.788 110.6 133.713 128.335 123.787 137.564C120.666 140.465 118.45 142.526 118 142.994C116.995 144.038 115.971 145.025 114.987 145.974C108.917 151.825 104.364 156.214 115.24 163.38C120.514 166.854 124.723 169.721 128.93 172.586C133.45 175.665 137.968 178.742 143.8 182.568C145.3 183.551 146.732 184.572 148.127 185.566C153.428 189.345 158.19 192.74 164.08 192.198C167.5 191.884 171.04 188.668 172.82 179.076C177.06 156.406 185.4 107.29 187.32 87.05C187.5 85.278 187.28 83.008 187.12 82.012C186.94 81.015 186.58 79.595 185.3 78.545C183.76 77.3 181.4 77.038 180.34 77.055C175.52 77.142 168.14 79.71 132.58 94.496Z" fill="url(#paint0_linear_146_23)"/>
<defs>
<linearGradient id="paint0_linear_146_23" x1="12800" y1="0" x2="12800" y2="25600" gradientUnits="userSpaceOnUse">
<stop stop-color="#2AABEE"/>
<stop offset="1" stop-color="#229ED9"/>
</linearGradient>
</defs>
</svg>
