<svg width="809" height="420" viewBox="0 0 809 420" fill="none" xmlns="http://www.w3.org/2000/svg">
<path d="M107.097 394C105.351 393.998 103.618 393.692 101.977 393.097C98.8103 391.939 96.1246 389.753 94.3498 386.888C92.575 384.024 91.8137 380.648 92.1878 377.3L103.784 270.628H15.0824C12.3465 270.632 9.66117 269.891 7.31482 268.486C4.96846 267.08 3.04972 265.062 1.76465 262.649C0.479592 260.236 -0.12323 257.519 0.0209228 254.79C0.165076 252.06 1.05076 249.422 2.58286 247.157L121.404 69.6214C123.283 66.8431 126.037 64.7716 129.229 63.7358C132.422 62.7 135.869 62.7593 139.023 63.9042C142.056 65.029 144.646 67.0996 146.409 69.8093C148.172 72.5191 149.014 75.724 148.812 78.9496L137.216 186.374H225.918C228.653 186.37 231.339 187.11 233.685 188.516C236.032 189.921 237.95 191.939 239.235 194.352C240.52 196.765 241.123 199.482 240.979 202.212C240.835 204.941 239.949 207.58 238.417 209.844L119.596 387.38C118.215 389.422 116.353 391.093 114.173 392.248C111.994 393.402 109.564 394.004 107.097 394Z" fill="#7357FF"/>
<path d="M332.8 280.28H423.24V308H295V283.08L385.16 141.12H295V113.4H423.24V138.32L332.8 280.28ZM597.853 153.72V308H565.933V289.8C560.893 296.147 554.266 301.187 546.053 304.92C538.026 308.467 529.439 310.24 520.293 310.24C508.159 310.24 497.239 307.72 487.533 302.68C478.013 297.64 470.453 290.173 464.853 280.28C459.439 270.387 456.733 258.44 456.733 244.44V153.72H488.373V239.68C488.373 253.493 491.826 264.133 498.733 271.6C505.639 278.88 515.066 282.52 527.013 282.52C538.959 282.52 548.386 278.88 555.293 271.6C562.386 264.133 565.933 253.493 565.933 239.68V153.72H597.853ZM671.889 176.4C677.302 169.307 684.675 163.333 694.009 158.48C703.342 153.627 713.889 151.2 725.649 151.2C739.089 151.2 751.315 154.56 762.329 161.28C773.529 167.813 782.302 177.053 788.649 189C794.995 200.947 798.169 214.667 798.169 230.16C798.169 245.653 794.995 259.56 788.649 271.88C782.302 284.013 773.529 293.533 762.329 300.44C751.315 307.16 739.089 310.52 725.649 310.52C713.889 310.52 703.435 308.187 694.289 303.52C685.142 298.667 677.675 292.693 671.889 285.6V381.36H639.969V153.72H671.889V176.4ZM765.689 230.16C765.689 219.52 763.449 210.373 758.969 202.72C754.675 194.88 748.889 189 741.609 185.08C734.515 180.973 726.862 178.92 718.649 178.92C710.622 178.92 702.969 180.973 695.689 185.08C688.595 189.187 682.809 195.16 678.329 203C674.035 210.84 671.889 220.08 671.889 230.72C671.889 241.36 674.035 250.693 678.329 258.72C682.809 266.56 688.595 272.533 695.689 276.64C702.969 280.747 710.622 282.8 718.649 282.8C726.862 282.8 734.515 280.747 741.609 276.64C748.889 272.347 754.675 266.187 758.969 258.16C763.449 250.133 765.689 240.8 765.689 230.16Z" fill="black"/>
</svg>
