<svg width="2357" height="3180" viewBox="0 0 2357 3180" fill="none" xmlns="http://www.w3.org/2000/svg">
<path d="M981.208 2014.28L880.43 2942.22C880.428 2942.24 880.425 2942.26 880.423 2942.28C876.033 2981.72 884.999 3021.49 905.886 3055.23C926.783 3088.99 958.406 3114.75 995.688 3128.41L995.741 3128.42L995.794 3128.44C1015.12 3135.46 1035.52 3139.06 1056.08 3139.08C1085.12 3139.12 1113.73 3132.03 1139.39 3118.43C1165.05 3104.83 1186.98 3085.13 1203.24 3061.06L1203.3 3060.98L1203.36 3060.9L2285.53 1442.44C2285.55 1442.4 2285.58 1442.36 2285.61 1442.32C2303.6 1415.66 2314 1384.6 2315.69 1352.48C2317.39 1320.31 2310.29 1288.29 2295.16 1259.85C2280.03 1231.41 2257.44 1207.63 2229.81 1191.07C2202.18 1174.5 2170.56 1165.77 2138.35 1165.82H1375.18L1476.01 230.87L1476.11 229.975L1476.16 229.076C1478.55 191.06 1468.62 153.288 1447.86 121.352C1427.1 89.4162 1396.61 65.0133 1360.91 51.7564L1360.77 51.7072L1360.64 51.659C1323.5 38.1655 1282.91 37.4671 1245.32 49.6747C1207.74 61.8823 1175.3 86.2963 1153.18 119.04L1153.12 119.122L1153.07 119.204L70.8978 1737.66C70.8797 1737.69 70.8617 1737.71 70.8437 1737.74C52.8373 1764.41 42.428 1795.48 40.7324 1827.62C39.0351 1859.78 46.133 1891.81 61.2639 1920.25C76.3948 1948.69 98.9869 1972.46 126.614 1989.03C154.241 2005.6 185.859 2014.33 218.073 2014.28H981.208Z" fill="black" stroke="#7357FF" stroke-width="80.2955"/>
</svg>
