<svg width="731" height="732" viewBox="0 0 731 732" fill="none" xmlns="http://www.w3.org/2000/svg">
<path d="M391.926 308.941L405.695 181.265L405.708 181.143L405.716 181.02C406.041 175.829 404.686 170.671 401.851 166.31C399.017 161.949 394.853 158.616 389.977 156.806L389.958 156.799L389.94 156.793C384.868 154.95 379.325 154.855 374.193 156.522C369.06 158.189 364.631 161.523 361.61 165.994L361.602 166.005L361.595 166.016L213.815 387.03C213.813 387.034 213.81 387.038 213.807 387.042C211.349 390.683 209.928 394.926 209.696 399.314C209.464 403.707 210.434 408.08 212.5 411.963C214.566 415.847 217.651 419.094 221.424 421.357C225.197 423.619 229.514 424.811 233.913 424.804H338.126L324.364 551.522C324.363 551.525 324.363 551.528 324.363 551.531C323.763 556.916 324.988 562.347 327.84 566.954C330.694 571.564 335.012 575.083 340.103 576.947L340.11 576.95L340.118 576.953C342.756 577.91 345.541 578.402 348.349 578.405C352.315 578.411 356.222 577.443 359.727 575.585C363.231 573.727 366.225 571.037 368.446 567.751L368.454 567.74L368.462 567.728L516.241 346.715C516.243 346.712 516.245 346.71 516.246 346.707C518.707 343.064 520.129 338.82 520.36 334.431C520.592 330.038 519.623 325.665 517.557 321.781C515.49 317.898 512.405 314.65 508.632 312.388C504.862 310.127 500.547 308.935 496.151 308.941C496.149 308.941 496.146 308.941 496.143 308.941L391.926 308.941Z" fill="black" stroke="#7357FF" stroke-width="10.965"/>
</svg>
