<svg width="1130" height="600" viewBox="0 0 1130 600" fill="none" xmlns="http://www.w3.org/2000/svg">
<path d="M50.3392 474C20.1772 474 0.178467 455.968 0.178467 428.429C0.178467 414.66 4.44049 403.841 14.6038 390.071L240.491 85.1727V82.8778H44.7657C18.2101 82.8778 0.178467 67.469 0.178467 41.8968C0.178467 16.3247 17.8822 0.915894 44.7657 0.915894H308.355C339.173 0.915894 358.844 19.2754 358.844 48.126C358.844 63.2069 352.615 73.3702 343.763 85.5006L119.515 389.415V392.038H326.387C353.598 392.038 371.302 407.447 371.302 433.019C371.302 458.591 353.27 474 326.387 474H50.3392Z" fill="#CFCFCF" fill-opacity="0.3"/>
<path d="M531.96 480.557C455.9 480.557 405.411 431.052 405.411 349.09V165.495C405.411 132.711 425.41 115.335 453.277 115.335C481.472 115.335 501.143 132.711 501.143 165.495V329.091C501.143 375.974 524.42 400.89 566.712 400.89C609.332 400.89 635.888 370.4 635.888 323.846V165.495C635.888 132.711 655.887 115.335 683.754 115.335C711.949 115.335 731.62 132.711 731.62 165.495V432.363C731.62 464.165 712.932 480.885 685.393 480.885C657.854 480.885 639.167 464.165 639.167 432.363V410.725H637.2C619.824 454.985 585.072 480.557 531.96 480.557Z" fill="#CFCFCF" fill-opacity="0.3"/>
<path d="M828.348 599.238C800.481 599.238 780.482 582.19 780.482 549.405V164.512C780.482 132.383 800.153 115.335 827.692 115.335C855.231 115.335 874.902 132.383 874.902 164.84V183.855H876.869C895.884 142.546 934.898 116.974 985.715 116.974C1074.89 116.974 1129.64 184.838 1129.64 298.274C1129.64 411.381 1075.22 479.573 987.354 479.573C936.21 479.573 896.868 454.657 878.181 414.987H876.214V549.405C876.214 582.19 856.543 599.238 828.348 599.238ZM953.586 402.529C1001.45 402.529 1031.61 362.204 1031.61 298.274C1031.61 234.671 1001.45 193.69 953.586 193.69C906.703 193.69 875.886 235.327 875.886 298.274C875.886 361.876 906.703 402.529 953.586 402.529Z" fill="#CFCFCF" fill-opacity="0.3"/>
</svg>
