<?xml version="1.0" encoding="UTF-8"?>
<!--Generator: Apple Native CoreSVG 326-->
<!DOCTYPE svg
PUBLIC "-//W3C//DTD SVG 1.1//EN"
       "http://www.w3.org/Graphics/SVG/1.1/DTD/svg11.dtd">
<svg version="1.1" xmlns="http://www.w3.org/2000/svg" xmlns:xlink="http://www.w3.org/1999/xlink" viewBox="0 0 12.4512 9.96924">
 <g>
  <rect height="9.96924" opacity="0" width="12.4512" x="0" y="0"/>
  <path d="M12.0776 4.98047C12.0776 4.79785 11.9946 4.62354 11.8452 4.48242L7.56201 0.20752C7.4126 0.0664062 7.24658 0 7.07227 0C6.70703 0 6.4248 0.273926 6.4248 0.647461C6.4248 0.821777 6.48291 0.996094 6.60742 1.1123L7.75293 2.29932L10.5586 4.83105L10.708 4.46582L8.5 4.30811L0.664062 4.30811C0.273926 4.30811 0 4.59033 0 4.98047C0 5.37061 0.273926 5.65283 0.664062 5.65283L8.5 5.65283L10.708 5.49512L10.5586 5.13818L7.75293 7.66162L6.60742 8.84863C6.48291 8.96484 6.4248 9.13916 6.4248 9.31348C6.4248 9.68701 6.70703 9.96094 7.07227 9.96094C7.24658 9.96094 7.4126 9.89453 7.56201 9.75342L11.8452 5.47852C11.9946 5.3374 12.0776 5.16309 12.0776 4.98047Z" fill="black" fill-opacity="0.85"/>
 </g>
</svg>
