<svg width="241" height="331" viewBox="0 0 241 331" fill="none" xmlns="http://www.w3.org/2000/svg">
<path d="M107.097 331C105.351 330.998 103.618 330.692 101.977 330.097C98.8103 328.939 96.1246 326.753 94.3498 323.888C92.575 321.024 91.8137 317.648 92.1878 314.3L103.784 207.628H15.0824C12.3465 207.632 9.66117 206.891 7.31482 205.486C4.96846 204.08 3.04972 202.062 1.76465 199.649C0.479592 197.236 -0.12323 194.519 0.0209228 191.79C0.165076 189.06 1.05076 186.422 2.58286 184.157L121.404 6.62143C123.283 3.84312 126.037 1.77162 129.229 0.735814C132.422 -0.299992 135.869 -0.240734 139.023 0.904184C142.056 2.02902 144.646 4.09959 146.409 6.80935C148.172 9.5191 149.014 12.724 148.812 15.9496L137.216 123.374H225.918C228.653 123.37 231.339 124.11 233.685 125.516C236.032 126.921 237.95 128.939 239.235 131.352C240.52 133.765 241.123 136.482 240.979 139.212C240.835 141.941 239.949 144.58 238.417 146.844L119.596 324.38C118.215 326.422 116.353 328.093 114.173 329.248C111.994 330.402 109.564 331.004 107.097 331Z" fill="white"/>
</svg>
