<?xml version="1.0" encoding="UTF-8"?>
<!--Generator: Apple Native CoreSVG 326-->
<!DOCTYPE svg
PUBLIC "-//W3C//DTD SVG 1.1//EN"
       "http://www.w3.org/Graphics/SVG/1.1/DTD/svg11.dtd">
<svg version="1.1" xmlns="http://www.w3.org/2000/svg" xmlns:xlink="http://www.w3.org/1999/xlink" viewBox="0 0 13.6216 6.66553">
 <g>
  <rect height="6.66553" opacity="0" width="13.6216" x="0" y="0"/>
  <path d="M0.556152 6.66553L12.6836 6.66553C12.999 6.66553 13.248 6.4165 13.248 6.10107C13.248 5.78564 12.999 5.53662 12.6836 5.53662L0.556152 5.53662C0.249023 5.53662 0 5.78564 0 6.10107C0 6.4165 0.249023 6.66553 0.556152 6.66553Z" fill="white" fill-opacity="0.85"/>
  <path d="M0.556152 3.90137L12.6836 3.90137C12.999 3.90137 13.248 3.65234 13.248 3.33691C13.248 3.02148 12.999 2.77246 12.6836 2.77246L0.556152 2.77246C0.249023 2.77246 0 3.02148 0 3.33691C0 3.65234 0.249023 3.90137 0.556152 3.90137Z" fill="white" fill-opacity="0.85"/>
  <path d="M0.556152 1.12891L12.6836 1.12891C12.999 1.12891 13.248 0.879883 13.248 0.572754C13.248 0.257324 12.999 0.00830078 12.6836 0.00830078L0.556152 0.00830078C0.249023 0.00830078 0 0.257324 0 0.572754C0 0.879883 0.249023 1.12891 0.556152 1.12891Z" fill="white" fill-opacity="0.85"/>
 </g>
</svg>
