<?xml version="1.0" encoding="UTF-8"?>
<!--Generator: Apple Native CoreSVG 326-->
<!DOCTYPE svg
PUBLIC "-//W3C//DTD SVG 1.1//EN"
       "http://www.w3.org/Graphics/SVG/1.1/DTD/svg11.dtd">
<svg version="1.1" xmlns="http://www.w3.org/2000/svg" xmlns:xlink="http://www.w3.org/1999/xlink" viewBox="0 0 14.3354 23.0015">
 <g>
  <rect height="23.0015" opacity="0" width="14.3354" x="0" y="0"/>
  <path d="M13.9619 5.88525L13.9619 18.4692C13.9619 20.2124 13.1069 21.0757 11.3887 21.0757L2.57324 21.0757C0.85498 21.0757 0 20.2124 0 18.4692L0 5.88525C0 4.14209 0.85498 3.27881 2.57324 3.27881L2.68313 3.27881C2.67614 3.34629 2.67285 3.4156 2.67285 3.48633L2.67285 4.35791C2.67285 4.44627 2.67807 4.53244 2.69007 4.61523L2.63965 4.61523C1.77637 4.61523 1.33643 5.08008 1.33643 5.90186L1.33643 18.4526C1.33643 19.2827 1.77637 19.7393 2.63965 19.7393L11.3223 19.7393C12.1855 19.7393 12.6255 19.2827 12.6255 18.4526L12.6255 5.90186C12.6255 5.08008 12.1855 4.61523 11.3223 4.61523L11.2718 4.61523C11.2838 4.53244 11.2891 4.44627 11.2891 4.35791L11.2891 3.48633C11.2891 3.4156 11.2858 3.34629 11.2788 3.27881L11.3887 3.27881C13.1069 3.27881 13.9619 4.14209 13.9619 5.88525Z" fill="black" fill-opacity="0.85"/>
  <path d="M4.41602 5.17969L9.5459 5.17969C10.0273 5.17969 10.3179 4.87256 10.3179 4.35791L10.3179 3.48633C10.3179 2.97168 10.0273 2.66455 9.5459 2.66455L8.78223 2.66455C8.72412 1.72656 7.94385 0.962891 6.98096 0.962891C6.01807 0.962891 5.23779 1.72656 5.17969 2.66455L4.41602 2.66455C3.93457 2.66455 3.64404 2.97168 3.64404 3.48633L3.64404 4.35791C3.64404 4.87256 3.93457 5.17969 4.41602 5.17969ZM6.98096 3.45312C6.58252 3.45312 6.25879 3.12109 6.25879 2.73096C6.25879 2.32422 6.58252 2.00049 6.98096 2.00049C7.37939 2.00049 7.70312 2.32422 7.70312 2.73096C7.70312 3.12109 7.37939 3.45312 6.98096 3.45312Z" fill="black" fill-opacity="0.85"/>
  <path d="M3.32031 15.8628L7.00586 15.8628C7.28809 15.8628 7.52051 15.6304 7.52051 15.3481C7.52051 15.0659 7.29639 14.8335 7.00586 14.8335L3.32031 14.8335C3.02979 14.8335 2.79736 15.0659 2.79736 15.3481C2.79736 15.6304 3.03809 15.8628 3.32031 15.8628Z" fill="black" fill-opacity="0.85"/>
  <path d="M3.32031 12.7583L10.6416 12.7583C10.9321 12.7583 11.1646 12.5259 11.1646 12.2354C11.1646 11.9531 10.9321 11.729 10.6416 11.729L3.32031 11.729C3.02979 11.729 2.79736 11.9531 2.79736 12.2354C2.79736 12.5259 3.02979 12.7583 3.32031 12.7583Z" fill="black" fill-opacity="0.85"/>
  <path d="M3.32031 9.81152L10.6416 9.81152C10.9238 9.81152 11.1646 9.5791 11.1646 9.29688C11.1646 9.01465 10.9238 8.77393 10.6416 8.77393L3.32031 8.77393C3.03809 8.77393 2.79736 9.01465 2.79736 9.29688C2.79736 9.5791 3.03809 9.81152 3.32031 9.81152Z" fill="black" fill-opacity="0.85"/>
 </g>
</svg>
