<?xml version="1.0" encoding="UTF-8"?>
<!--Generator: Apple Native CoreSVG 326-->
<!DOCTYPE svg
PUBLIC "-//W3C//DTD SVG 1.1//EN"
       "http://www.w3.org/Graphics/SVG/1.1/DTD/svg11.dtd">
<svg version="1.1" xmlns="http://www.w3.org/2000/svg" xmlns:xlink="http://www.w3.org/1999/xlink" viewBox="0 0 13.3228 12.9414">
 <g>
  <rect height="12.9414" opacity="0" width="13.3228" x="0" y="0"/>
  <path d="M9.6123 12.9412C10.7993 12.9412 11.5464 12.634 12.2021 11.8704C12.2603 11.8123 12.3184 11.7459 12.3765 11.6795C12.7666 11.2395 12.9492 10.8079 12.9492 10.3928C12.9492 9.90309 12.6504 9.41335 12.0278 8.9817L10.376 7.8528C9.85303 7.48756 9.42139 7.47926 8.76562 7.79469L7.76123 8.28444C7.58691 8.37575 7.4209 8.37575 7.25488 8.25954C6.97266 8.07692 6.20898 7.45436 5.76904 7.01442C5.3291 6.57448 4.83936 5.98512 4.61523 5.59499C4.54053 5.46217 4.54883 5.34596 4.66504 5.17165L5.23779 4.26686C5.49512 3.86842 5.59473 3.27907 5.23779 2.77272L3.94287 0.921646C3.51123 0.299088 3.04639 0.00856018 2.54834 0.000259399C2.1333-0.00804138 1.70166 0.182877 1.26172 0.573013C1.19531 0.622818 1.13721 0.680923 1.0708 0.739029C0.31543 1.40309 0 2.14186 0 3.32887C0 5.21315 1.12891 7.52077 3.27881 9.67067C5.41211 11.804 7.72803 12.9412 9.6123 12.9412ZM9.62061 11.8206C7.96045 11.8538 5.80225 10.5672 4.12549 8.8987C2.44873 7.23024 1.0874 4.98073 1.12891 3.32057C1.14551 2.61501 1.39453 2.01735 1.89258 1.59401C1.94238 1.55251 1.98389 1.5193 2.02539 1.4778C2.19141 1.34499 2.38232 1.26198 2.55664 1.26198C2.73926 1.26198 2.89697 1.32838 3.02148 1.511L4.17529 3.25417C4.2832 3.40358 4.2749 3.53639 4.14209 3.74391L3.50293 4.78151C3.1875 5.29616 3.24561 5.66139 3.56934 6.07643C3.97607 6.60768 4.56543 7.34645 5.01367 7.77809C5.45361 8.21803 6.3335 8.9817 6.79004 9.32204C7.20508 9.62917 7.56201 9.69557 8.23438 9.38014L9.32178 8.85719C9.5459 8.75758 9.72021 8.79079 9.91113 8.907L11.4302 9.92799C11.6128 10.0442 11.6792 10.2019 11.6792 10.3845C11.6792 10.5589 11.5962 10.7498 11.4634 10.9158C11.4219 10.9656 11.3887 11.0071 11.3555 11.0486C10.9321 11.5549 10.3262 11.804 9.62061 11.8206Z" fill="black" fill-opacity="0.85"/>
 </g>
</svg>
