<?xml version="1.0" encoding="UTF-8"?>
<!--Generator: Apple Native CoreSVG 326-->
<!DOCTYPE svg
PUBLIC "-//W3C//DTD SVG 1.1//EN"
       "http://www.w3.org/Graphics/SVG/1.1/DTD/svg11.dtd">
<svg version="1.1" xmlns="http://www.w3.org/2000/svg" xmlns:xlink="http://www.w3.org/1999/xlink" viewBox="0 0 13.7793 13.4058">
 <g>
  <rect height="13.4058" opacity="0" width="13.7793" x="0" y="0"/>
  <path d="M6.69873 13.3975C10.4009 13.3975 13.4058 10.4009 13.4058 6.69873C13.4058 2.99658 10.4009 0 6.69873 0C3.00488 0 0 2.99658 0 6.69873C0 10.4009 3.00488 13.3975 6.69873 13.3975ZM6.69873 12.1357C3.69385 12.1357 1.27002 9.70361 1.27002 6.69873C1.27002 3.69385 3.69385 1.26172 6.69873 1.26172C9.70361 1.26172 12.1357 3.69385 12.1357 6.69873C12.1357 9.70361 9.70361 12.1357 6.69873 12.1357Z" fill="black" fill-opacity="0.85"/>
  <path d="M6.56592 8.06006C6.93945 8.06006 7.16357 7.82764 7.16357 7.53711C7.16357 7.52051 7.16357 7.50391 7.16357 7.4873C7.16357 7.13867 7.37939 6.91455 7.81934 6.62402C8.43359 6.22559 8.93164 5.84375 8.93164 5.02197C8.93164 3.87646 7.91064 3.29541 6.78174 3.29541C5.63623 3.29541 4.88086 3.81006 4.68164 4.38281C4.64014 4.49902 4.61523 4.61523 4.61523 4.73145C4.61523 5.05518 4.88086 5.22949 5.12158 5.22949C5.37061 5.22949 5.52002 5.12158 5.66113 4.94727L5.80225 4.78125C6.08447 4.43262 6.375 4.2915 6.73193 4.2915C7.27979 4.2915 7.63672 4.60693 7.63672 5.08008C7.63672 5.52002 7.35449 5.71924 6.79834 6.10107C6.3501 6.4165 5.96826 6.76514 5.96826 7.4292C5.96826 7.4375 5.96826 7.4624 5.96826 7.4707C5.96826 7.86084 6.17578 8.06006 6.56592 8.06006ZM6.54932 10.0522C6.94775 10.0522 7.30469 9.72852 7.30469 9.32178C7.30469 8.90674 6.95605 8.59131 6.54932 8.59131C6.13428 8.59131 5.78564 8.91504 5.78564 9.32178C5.78564 9.72021 6.14258 10.0522 6.54932 10.0522Z" fill="black" fill-opacity="0.85"/>
 </g>
</svg>
