<?xml version="1.0" encoding="UTF-8"?>
<!--Generator: Apple Native CoreSVG 326-->
<!DOCTYPE svg
PUBLIC "-//W3C//DTD SVG 1.1//EN"
       "http://www.w3.org/Graphics/SVG/1.1/DTD/svg11.dtd">
<svg version="1.1" xmlns="http://www.w3.org/2000/svg" xmlns:xlink="http://www.w3.org/1999/xlink" viewBox="0 0 14.3354 17.8052">
 <g>
  <rect height="17.8052" opacity="0" width="14.3354" x="0" y="0"/>
  <path d="M3.83496 4.80615L10.1353 4.80615C10.4258 4.80615 10.6416 4.58203 10.6416 4.2915C10.6416 4.00928 10.4258 3.78516 10.1353 3.78516L3.83496 3.78516C3.53613 3.78516 3.32031 4.00928 3.32031 4.2915C3.32031 4.58203 3.53613 4.80615 3.83496 4.80615ZM3.83496 7.70312L10.1353 7.70312C10.4258 7.70312 10.6416 7.479 10.6416 7.18848C10.6416 6.90625 10.4258 6.68213 10.1353 6.68213L3.83496 6.68213C3.53613 6.68213 3.32031 6.90625 3.32031 7.18848C3.32031 7.479 3.53613 7.70312 3.83496 7.70312ZM3.83496 10.6001L6.81494 10.6001C7.11377 10.6001 7.32959 10.3843 7.32959 10.1021C7.32959 9.80322 7.11377 9.5791 6.81494 9.5791L3.83496 9.5791C3.53613 9.5791 3.32031 9.80322 3.32031 10.1021C3.32031 10.3843 3.53613 10.6001 3.83496 10.6001ZM0 15.1987C0 16.9336 0.85498 17.7969 2.57324 17.7969L11.3887 17.7969C13.1069 17.7969 13.9619 16.9336 13.9619 15.1987L13.9619 2.60645C13.9619 0.879883 13.1069 0 11.3887 0L2.57324 0C0.85498 0 0 0.879883 0 2.60645ZM1.33643 15.1738L1.33643 2.63135C1.33643 1.80127 1.77637 1.33643 2.63965 1.33643L11.3223 1.33643C12.1855 1.33643 12.6255 1.80127 12.6255 2.63135L12.6255 15.1738C12.6255 16.0039 12.1855 16.4604 11.3223 16.4604L2.63965 16.4604C1.77637 16.4604 1.33643 16.0039 1.33643 15.1738Z" fill="black" fill-opacity="0.85"/>
 </g>
</svg>
